<?xml version="1.0" encoding="UTF-8"?>
<svg version="1.1" xmlns="http://www.w3.org/2000/svg" width="500" height="500">
<path d="M0 0 C1.72108047 1.05962044 3.4120791 2.16794857 5.09375 3.2890625 C5.09375 3.9490625 5.09375 4.6090625 5.09375 5.2890625 C5.75375 5.2890625 6.41375 5.2890625 7.09375 5.2890625 C7.09375 5.9490625 7.09375 6.6090625 7.09375 7.2890625 C7.75375 7.2890625 8.41375 7.2890625 9.09375 7.2890625 C10.62055964 9.46934667 11.99729955 11.62470629 13.34375 13.9140625 C13.74561523 14.59412354 14.14748047 15.27418457 14.56152344 15.97485352 C21.20749097 27.45630784 25.37646075 39.62396195 29.09375 52.2890625 C29.90714844 52.03511719 30.72054687 51.78117187 31.55859375 51.51953125 C44.82910741 47.53389891 57.62834105 45.04079395 71.53125 44.9140625 C72.43037109 44.90020508 73.32949219 44.88634766 74.25585938 44.87207031 C82.80409739 44.93200261 91.47425648 46.57222719 98.09375 52.2890625 C104.32680197 60.23803701 105.8054741 66.25778132 105.09375 76.2890625 C102.75879529 89.7204075 94.86334345 101.40214336 86.37988281 111.71777344 C85.07452412 113.31255107 83.79689757 114.92655051 82.5234375 116.546875 C77.97181366 122.26933456 77.97181366 122.26933456 76.09375 124.2890625 C75.43375 124.2890625 74.77375 124.2890625 74.09375 124.2890625 C74.09375 124.9490625 74.09375 125.6090625 74.09375 126.2890625 C72.71875 127.9140625 72.71875 127.9140625 71.09375 129.2890625 C70.43375 129.2890625 69.77375 129.2890625 69.09375 129.2890625 C70.85586598 132.81329446 73.04501739 135.3271123 75.84375 138.0390625 C80.02005698 142.10709486 83.862682 146.42226632 87.09375 151.2890625 C87.09375 151.9490625 87.09375 152.6090625 87.09375 153.2890625 C87.75375 153.2890625 88.41375 153.2890625 89.09375 153.2890625 C90.6353496 155.36371029 92.03412671 157.41793514 93.40625 159.6015625 C93.80851807 160.23731201 94.21078613 160.87306152 94.62524414 161.52807617 C101.50401389 172.59874795 106.52503865 184.00157684 105.09375 197.2890625 C104.02658636 201.35116928 102.43213012 204.78149232 100.09375 208.2890625 C99.43375 208.2890625 98.77375 208.2890625 98.09375 208.2890625 C98.09375 208.9490625 98.09375 209.6090625 98.09375 210.2890625 C96.51953125 211.5078125 96.51953125 211.5078125 94.40625 212.7890625 C93.72175781 213.211875 93.03726563 213.6346875 92.33203125 214.0703125 C86.20755904 217.40510365 80.62518411 217.86344511 73.77539062 218.32421875 C68.43914926 218.79755899 65.52494825 220.09885965 61.09375 223.2890625 C57.43624044 223.10308744 54.55520955 222.44288235 51.09375 221.2890625 C51.09375 220.6290625 51.09375 219.9690625 51.09375 219.2890625 C50.43375 219.2890625 49.77375 219.2890625 49.09375 219.2890625 C48.74699219 218.52207031 48.40023437 217.75507813 48.04296875 216.96484375 C45.12807562 212.96343735 41.57765498 212.57847937 36.90625 211.4765625 C35.6387793 211.15268555 35.6387793 211.15268555 34.34570312 210.82226562 C32.26612375 210.293559 30.18044821 209.78893414 28.09375 209.2890625 C27.94099609 210.98675781 27.94099609 210.98675781 27.78515625 212.71875 C27.17523263 217.54510215 25.73557208 221.87371487 24.03125 226.4140625 C23.72541992 227.23720947 23.41958984 228.06035645 23.10449219 228.90844727 C19.68831877 237.79446244 15.33320767 247.01553741 9.09375 254.2890625 C8.43375 254.2890625 7.77375 254.2890625 7.09375 254.2890625 C7.09375 254.9490625 7.09375 255.6090625 7.09375 256.2890625 C6.43375 256.2890625 5.77375 256.2890625 5.09375 256.2890625 C5.09375 256.9490625 5.09375 257.6090625 5.09375 258.2890625 C4.43375 258.2890625 3.77375 258.2890625 3.09375 258.2890625 C3.09375 258.9490625 3.09375 259.6090625 3.09375 260.2890625 C-3.8072195 264.19336883 -10.12250602 267.41808102 -18.1875 265.84375 C-23.47146569 264.26941776 -28.63482198 261.81560934 -32.90625 258.2890625 C-32.90625 257.6290625 -32.90625 256.9690625 -32.90625 256.2890625 C-33.56625 256.2890625 -34.22625 256.2890625 -34.90625 256.2890625 C-45.77111815 244.07342696 -53.58905258 225.33870359 -55.90625 209.2890625 C-56.45974121 209.46034668 -57.01323242 209.63163086 -57.58349609 209.80810547 C-60.14787996 210.59850141 -62.71452548 211.38130254 -65.28125 212.1640625 C-66.15136719 212.43347656 -67.02148438 212.70289063 -67.91796875 212.98046875 C-83.79132376 217.80126546 -105.23817445 221.97116 -120.65625 213.91796875 C-126.03393677 210.0247476 -130.77206792 204.90811051 -132.390625 198.31640625 C-134.38876499 182.59574601 -126.656576 168.00124025 -118.38671875 155.1328125 C-117.89816406 154.524375 -117.40960938 153.9159375 -116.90625 153.2890625 C-116.24625 153.2890625 -115.58625 153.2890625 -114.90625 153.2890625 C-114.679375 152.7734375 -114.4525 152.2578125 -114.21875 151.7265625 C-112.42407382 148.39359245 -110.40659985 145.14202579 -107.90625 142.2890625 C-107.24625 142.2890625 -106.58625 142.2890625 -105.90625 142.2890625 C-105.90625 141.6290625 -105.90625 140.9690625 -105.90625 140.2890625 C-105.24625 140.2890625 -104.58625 140.2890625 -103.90625 140.2890625 C-103.90625 139.6290625 -103.90625 138.9690625 -103.90625 138.2890625 C-103.24625 138.2890625 -102.58625 138.2890625 -101.90625 138.2890625 C-101.90625 137.6290625 -101.90625 136.9690625 -101.90625 136.2890625 C-101.24625 136.2890625 -100.58625 136.2890625 -99.90625 136.2890625 C-98.4456215 133.64167334 -97.90625 132.39457916 -97.90625 129.2890625 C-99.6093175 127.39219767 -101.30628796 125.65575704 -103.15625 123.9140625 C-106.66674524 120.56020353 -110.05519527 117.23980977 -112.90625 113.2890625 C-112.90625 112.6290625 -112.90625 111.9690625 -112.90625 111.2890625 C-113.56625 111.2890625 -114.22625 111.2890625 -114.90625 111.2890625 C-118.90625 105.87729779 -118.90625 105.87729779 -118.90625 103.2890625 C-119.56625 103.2890625 -120.22625 103.2890625 -120.90625 103.2890625 C-122.37038471 100.58372718 -123.82765832 97.87505557 -125.28125 95.1640625 C-125.69375 94.40351563 -126.10625 93.64296875 -126.53125 92.859375 C-131.29030006 83.95534586 -134.88536431 73.54025594 -132.15625 63.3515625 C-130.8854186 60.23802556 -129.49627374 57.25228857 -127.90625 54.2890625 C-127.24625 54.2890625 -126.58625 54.2890625 -125.90625 54.2890625 C-125.90625 53.6290625 -125.90625 52.9690625 -125.90625 52.2890625 C-116.6006605 46.20556342 -106.01363536 43.34484891 -94.90625 44.2890625 C-93.79378906 44.37027344 -92.68132812 44.45148438 -91.53515625 44.53515625 C-80.55510486 45.60772925 -70.32152658 48.50068866 -59.80712891 51.77001953 C-57.91310018 52.37686615 -57.91310018 52.37686615 -55.90625 52.2890625 C-55.5659375 51.0309375 -55.225625 49.7728125 -54.875 48.4765625 C-49.84499188 30.48019343 -42.69599635 9.28662682 -25.8515625 -0.9609375 C-16.82441041 -5.58695138 -8.7270906 -4.84523537 0 0 Z M-24.40625 12.3515625 C-35.83353152 25.77861829 -41.33173913 41.24139529 -44.90625 58.2890625 C-43.50826172 58.81693359 -43.50826172 58.81693359 -42.08203125 59.35546875 C-34.25686549 62.36904057 -27.03232706 65.67355722 -19.80859375 69.96875 C-16.4133262 71.51329971 -14.60011197 71.79551653 -10.90625 71.2890625 C-8.24956168 70.1476495 -5.80831966 68.97528932 -3.28125 67.6015625 C-1.87407133 66.86527849 -0.46519537 66.13222971 0.9453125 65.40234375 C1.64043945 65.04221191 2.33556641 64.68208008 3.05175781 64.31103516 C7.6125426 62.02846161 12.35091271 60.15745295 17.09375 58.2890625 C16.08878643 45.475777 11.04927325 34.46625306 5.09375 23.2890625 C4.75601563 22.5775 4.41828125 21.8659375 4.0703125 21.1328125 C1.37777839 15.69833998 -3.00251135 11.72750743 -7.90625 8.2890625 C-14.46260442 6.14129122 -19.19037887 8.04846882 -24.40625 12.3515625 Z M-119.90625 63.2890625 C-122.09483558 66.8098306 -122.17348366 69.79567262 -121.5 73.8671875 C-116.58130904 93.93026903 -102.28028423 109.20546713 -87.90625 123.2890625 C-82.7997987 119.58445948 -78.01278118 115.69509128 -73.375 111.4140625 C-70.90625 109.2890625 -70.90625 109.2890625 -68.90966797 108.14477539 C-65.44786864 106.03564354 -63.31211996 104.52156465 -62.01464844 100.58154297 C-61.51109634 97.28984254 -61.23019502 94.05047468 -61.03125 90.7265625 C-60.83099388 88.39439618 -60.62918783 86.0623624 -60.42578125 83.73046875 C-60.34021973 82.61816895 -60.2546582 81.50586914 -60.16650391 80.35986328 C-59.70847678 74.95548696 -58.82567591 69.63254953 -57.90625 64.2890625 C-90.18474209 53.15463149 -90.18474209 53.15463149 -119.90625 63.2890625 Z M31.09375 64.2890625 C31.21492187 65.29582031 31.33609375 66.30257812 31.4609375 67.33984375 C31.63022393 68.76041481 31.79949335 70.18098789 31.96875 71.6015625 C32.05970947 72.35469727 32.15066895 73.10783203 32.24438477 73.88378906 C32.74326492 78.07627633 33.1935699 82.26696722 33.56640625 86.47265625 C33.64455566 87.31852295 33.72270508 88.16438965 33.80322266 89.03588867 C33.95248981 90.67447125 34.09187819 92.31399109 34.22021484 93.9543457 C34.73664881 99.49153413 35.82674251 103.29684379 40.15625 107.1015625 C41.99920752 108.46324985 41.99920752 108.46324985 44.09375 108.2890625 C44.09375 108.9490625 44.09375 109.6090625 44.09375 110.2890625 C45.60278877 111.64280214 47.17787698 112.92349651 48.78125 114.1640625 C49.65136719 114.84210938 50.52148438 115.52015625 51.41796875 116.21875 C52.30097656 116.90195313 53.18398438 117.58515625 54.09375 118.2890625 C55.7626601 119.61958669 57.43001195 120.95207661 59.09375 122.2890625 C73.12633198 116.54996869 84.76431808 96.96042602 90.97265625 83.97265625 C92.82675463 79.53444862 94.37804633 75.51699361 94.34375 70.6640625 C94.34890625 69.92929688 94.3540625 69.19453125 94.359375 68.4375 C94.06156656 66.02875525 93.28888895 64.38529827 92.09375 62.2890625 C91.43375 62.2890625 90.77375 62.2890625 90.09375 62.2890625 C90.09375 61.6290625 90.09375 60.9690625 90.09375 60.2890625 C74.71910224 48.98417444 47.04730715 58.47780113 31.09375 64.2890625 Z M-46.90625 69.2890625 C-48.67351822 73.22457576 -49.44305589 76.89732112 -50.03125 81.1640625 C-50.19882813 82.33710938 -50.36640625 83.51015625 -50.5390625 84.71875 C-50.90431979 88.27029425 -50.97011759 91.7216015 -50.90625 95.2890625 C-50.57625 94.6290625 -50.24625 93.9690625 -49.90625 93.2890625 C-49.22949219 93.02222656 -48.55273438 92.75539063 -47.85546875 92.48046875 C-43.83574161 90.85660547 -40.36217633 88.55769591 -36.71875 86.2265625 C-35.28820935 85.31830294 -33.85723974 84.41071856 -32.42578125 83.50390625 C-31.79776611 83.10292725 -31.16975098 82.70194824 -30.52270508 82.28881836 C-28.90625 81.2890625 -28.90625 81.2890625 -26.90625 80.2890625 C-27.56540475 77.24018754 -27.56540475 77.24018754 -29.65625 76.21411133 C-30.39875 75.89466553 -31.14125 75.57521973 -31.90625 75.24609375 C-32.710625 74.89482422 -33.515 74.54355469 -34.34375 74.18164062 C-35.189375 73.82521484 -36.035 73.46878906 -36.90625 73.1015625 C-37.751875 72.73353516 -38.5975 72.36550781 -39.46875 71.98632812 C-43.0645403 70.15005477 -43.0645403 70.15005477 -46.90625 69.2890625 Z M11.28125 72.1015625 C10.07855469 72.62363281 8.87585938 73.14570313 7.63671875 73.68359375 C4.41276266 75.14450439 1.24655916 76.68127467 -1.90625 78.2890625 C1.91832209 81.52467958 5.87111749 84.03731184 10.21875 86.4765625 C10.83878906 86.83169922 11.45882812 87.18683594 12.09765625 87.55273438 C14.7398264 89.04996412 17.20501559 90.32615103 20.09375 91.2890625 C20.09375 91.9490625 20.09375 92.6090625 20.09375 93.2890625 C21.08375 93.6190625 22.07375 93.9490625 23.09375 94.2890625 C23.40649919 85.77533465 22.46667913 77.6859951 21.09375 69.2890625 C17.36301988 69.2890625 14.62530389 70.62037423 11.28125 72.1015625 Z M-18.46875 86.7890625 C-20.30138871 87.92383239 -22.11023103 89.09718029 -23.90625 90.2890625 C-25.32795176 91.13579375 -26.75413373 91.97502687 -28.18359375 92.80859375 C-42.46777929 100.01287088 -42.46777929 100.01287088 -52.49052429 111.14874268 C-53.70043662 117.37784827 -53.50219027 123.91656323 -53.64086914 130.24121094 C-53.69261266 132.10008477 -53.76766282 133.95846189 -53.86645508 135.81542969 C-54.79489603 146.76360066 -54.79489603 146.76360066 -50.36621094 156.21484375 C-47.28697784 158.27208592 -44.28772207 159.79417942 -40.90625 161.2890625 C-39.09557693 162.42600734 -37.30034395 163.58844302 -35.53125 164.7890625 C-31.21908593 167.50691846 -26.86544002 170.14820724 -22.46875 172.7265625 C-21.87723145 173.08105469 -21.28571289 173.43554688 -20.67626953 173.80078125 C-17.37251218 175.70974508 -15.83873511 176.2890625 -11.90625 176.2890625 C-10.02365821 175.58722775 -10.02365821 175.58722775 -8.17578125 174.5234375 C-7.46292969 174.13341553 -6.75007813 173.74339355 -6.015625 173.34155273 C-5.25765625 172.91173096 -4.4996875 172.48190918 -3.71875 172.0390625 C-2.93371094 171.59957275 -2.14867187 171.16008301 -1.33984375 170.70727539 C6.68063923 166.11968084 14.16676971 160.83170642 21.59179688 155.34545898 C23.09375 154.2890625 23.09375 154.2890625 25.09375 153.2890625 C25.36680244 147.16963263 25.56576454 141.05378201 25.69799805 134.9296875 C25.75313634 132.84963195 25.82807486 130.76999936 25.92358398 128.69140625 C26.91136341 116.87024506 26.91136341 116.87024506 22.85986328 106.2734375 C20.02590823 104.19997821 17.28911348 102.72992402 14.09375 101.2890625 C12.73164453 100.39989967 11.38482242 99.48637726 10.0625 98.5390625 C8.90836556 97.78581104 7.75219166 97.03567283 6.59375 96.2890625 C6.00078125 95.89589844 5.4078125 95.50273437 4.796875 95.09765625 C1.24652246 92.78948445 1.24652246 92.78948445 -2.90625 92.2890625 C-2.90625 91.6290625 -2.90625 90.9690625 -2.90625 90.2890625 C-10.32979912 85.55530237 -10.32979912 85.55530237 -18.46875 86.7890625 Z M-71.96875 124.1640625 C-72.63197266 124.71964844 -73.29519531 125.27523437 -73.97851562 125.84765625 C-74.60564453 126.38261719 -75.23277344 126.91757813 -75.87890625 127.46875 C-76.45906494 127.96101074 -77.03922363 128.45327148 -77.63696289 128.96044922 C-79.13650969 130.22383915 -79.13650969 130.22383915 -78.90625 132.2890625 C-78.24625 132.2890625 -77.58625 132.2890625 -76.90625 132.2890625 C-76.90625 132.9490625 -76.90625 133.6090625 -76.90625 134.2890625 C-73.85066577 137.31424159 -73.85066577 137.31424159 -69.90625 138.2890625 C-69.90625 138.9490625 -69.90625 139.6090625 -69.90625 140.2890625 C-67.92625 141.2790625 -65.94625 142.2690625 -63.90625 143.2890625 C-63.90625 135.0390625 -63.90625 126.7890625 -63.90625 118.2890625 C-66.63941694 118.2890625 -69.97299163 122.45898643 -71.96875 124.1640625 Z M37.09375 118.2890625 C37.09375 126.5390625 37.09375 134.7890625 37.09375 143.2890625 C39.73375 141.3090625 42.37375 139.3290625 45.09375 137.2890625 C45.75375 136.9590625 46.41375 136.6290625 47.09375 136.2890625 C47.09375 135.6290625 47.09375 134.9690625 47.09375 134.2890625 C47.75375 134.2890625 48.41375 134.2890625 49.09375 134.2890625 C49.09375 133.6290625 49.09375 132.9690625 49.09375 132.2890625 C49.75375 132.2890625 50.41375 132.2890625 51.09375 132.2890625 C51.09375 131.2990625 51.09375 130.3090625 51.09375 129.2890625 C50.43375 129.2890625 49.77375 129.2890625 49.09375 129.2890625 C49.09375 128.6290625 49.09375 127.9690625 49.09375 127.2890625 C47.14999046 125.47277474 47.14999046 125.47277474 44.71875 123.6640625 C43.90664063 123.03242188 43.09453125 122.40078125 42.2578125 121.75 C40.25265121 120.10255442 40.25265121 120.10255442 38.09375 120.2890625 C37.76375 119.6290625 37.43375 118.9690625 37.09375 118.2890625 Z M-91.90625 142.2890625 C-91.90625 142.9490625 -91.90625 143.6090625 -91.90625 144.2890625 C-92.56625 144.2890625 -93.22625 144.2890625 -93.90625 144.2890625 C-93.90625 144.9490625 -93.90625 145.6090625 -93.90625 146.2890625 C-94.56625 146.2890625 -95.22625 146.2890625 -95.90625 146.2890625 C-95.90625 146.9490625 -95.90625 147.6090625 -95.90625 148.2890625 C-96.56625 148.2890625 -97.22625 148.2890625 -97.90625 148.2890625 C-106.7473394 157.49853063 -115.63027242 170.17791212 -119.90625 182.2890625 C-120.5559375 184.0834375 -120.5559375 184.0834375 -121.21875 185.9140625 C-122.20908046 190.77568475 -121.71922059 194.44918168 -119.71875 198.9765625 C-116.25304438 203.39832484 -112.37811568 205.48414874 -106.90625 206.2890625 C-90.40347947 207.26756201 -75.28106519 204.21721593 -59.90625 198.2890625 C-59.57625 197.9590625 -59.24625 197.6290625 -58.90625 197.2890625 C-58.97679863 195.89048354 -59.11915799 194.49548051 -59.2890625 193.10546875 C-59.76279571 188.90388856 -60.05919422 184.72662949 -60.2734375 180.50390625 C-60.41256243 167.21285944 -60.41256243 167.21285944 -65.48046875 155.46484375 C-70.15756483 151.58311899 -70.15756483 151.58311899 -75.90625 150.2890625 C-75.90625 149.6290625 -75.90625 148.9690625 -75.90625 148.2890625 C-77.66376978 146.68499997 -79.48800224 145.15338873 -81.34375 143.6640625 C-82.35308594 142.84679687 -83.36242187 142.02953125 -84.40234375 141.1875 C-88.09038728 138.39126107 -88.49898666 139.43135776 -91.90625 142.2890625 Z M55.09375 142.2890625 C55.09375 142.9490625 55.09375 143.6090625 55.09375 144.2890625 C54.5575 144.51851562 54.02125 144.74796875 53.46875 144.984375 C50.3695838 146.68687748 47.7768877 148.88605203 45.09375 151.1640625 C44.57296875 151.59847656 44.0521875 152.03289062 43.515625 152.48046875 C42.02675223 153.7324754 40.55972356 155.01031926 39.09375 156.2890625 C38.32160156 156.92972656 37.54945313 157.57039063 36.75390625 158.23046875 C34.51515708 161.00651772 34.59457056 162.80983228 34.53125 166.3515625 C34.24662821 173.29925331 33.26951129 179.96506814 32.02124023 186.80297852 C31.30809196 190.92200229 30.85710497 194.19164532 32.09375 198.2890625 C34.50642325 199.1563045 36.92279469 200.00803186 39.34375 200.8515625 C40.02566406 201.09841797 40.70757812 201.34527344 41.41015625 201.59960938 C46.25244554 203.33094888 46.25244554 203.33094888 51.09375 202.2890625 C51.691875 201.9384375 52.29 201.5878125 52.90625 201.2265625 C56.10578457 199.8553334 58.64905294 199.98689609 62.09375 200.2890625 C65.1754464 201.65870535 66.66945471 202.58190368 68.40625 205.4765625 C68.633125 206.0746875 68.86 206.6728125 69.09375 207.2890625 C77.55122824 207.64895519 84.24271411 206.73846134 90.68359375 200.921875 C93.71576014 197.41094549 94.55768215 194.26814985 94.39453125 189.60546875 C92.66386972 176.27712734 83.15959846 164.43018842 74.8203125 154.375 C73.09375 152.2890625 73.09375 152.2890625 71.4921875 150.015625 C71.03070313 149.44585937 70.56921875 148.87609375 70.09375 148.2890625 C69.43375 148.2890625 68.77375 148.2890625 68.09375 148.2890625 C68.09375 147.6290625 68.09375 146.9690625 68.09375 146.2890625 C67.43375 146.2890625 66.77375 146.2890625 66.09375 146.2890625 C66.09375 145.6290625 66.09375 144.9690625 66.09375 144.2890625 C65.43375 144.2890625 64.77375 144.2890625 64.09375 144.2890625 C64.09375 143.6290625 64.09375 142.9690625 64.09375 142.2890625 C63.43375 142.2890625 62.77375 142.2890625 62.09375 142.2890625 C61.76375 141.2990625 61.43375 140.3090625 61.09375 139.2890625 C58.29466867 139.2890625 57.16652627 140.4926564 55.09375 142.2890625 Z M-50.90625 168.2890625 C-51.0816868 173.79339211 -50.4336661 178.82568597 -49.40625 184.2265625 C-49.26316406 185.00580078 -49.12007813 185.78503906 -48.97265625 186.58789062 C-48.62270276 188.4893046 -48.26525335 190.38933643 -47.90625 192.2890625 C-42.70339932 191.71366936 -38.66668964 189.99487357 -34.03125 187.7265625 C-33.34289062 187.39720703 -32.65453125 187.06785156 -31.9453125 186.72851562 C-30.2623767 185.92210889 -28.58384707 185.10651756 -26.90625 184.2890625 C-26.90625 183.6290625 -26.90625 182.9690625 -26.90625 182.2890625 C-28.65178555 181.15236495 -30.45636526 180.10593861 -32.28125 179.1015625 C-37.41499509 176.20622759 -42.20145073 173.06686779 -46.9453125 169.57421875 C-48.79428614 168.10634689 -48.79428614 168.10634689 -50.90625 168.2890625 Z M14.46875 173.0390625 C9.40619531 176.24627947 4.31952147 179.35385228 -0.90625 182.2890625 C-0.90625 182.9490625 -0.90625 183.6090625 -0.90625 184.2890625 C1.65582058 185.41504887 4.21838699 186.53988238 6.78125 187.6640625 C7.50248047 187.98117187 8.22371094 188.29828125 8.96679688 188.625 C12.65350335 190.24109051 16.34339156 191.82442548 20.09375 193.2890625 C23.51788581 189.86492669 23.03154342 179.81029611 23.22265625 175.13671875 C23.21937604 172.85041434 23.18848654 170.57326583 23.09375 168.2890625 C20.36079376 168.2890625 16.8282101 171.5417937 14.46875 173.0390625 Z M-19.88671875 192.58984375 C-20.88638672 193.07259766 -21.88605469 193.55535156 -22.91601562 194.05273438 C-23.96466797 194.56384766 -25.01332031 195.07496094 -26.09375 195.6015625 C-38.66949621 201.70438236 -38.66949621 201.70438236 -44.90625 204.2890625 C-42.07129748 222.27197029 -35.1471694 238.50914734 -22.53125 251.7890625 C-18.73754574 253.9568935 -15.25253874 254.46661959 -10.90625 254.2890625 C-2.71900776 251.66914498 2.5271149 244.35215313 6.6171875 237.15625 C11.77332816 227.14406152 17.46328102 215.80611255 17.09375 204.2890625 C11.14644819 201.19150948 5.06325954 198.48737608 -1.09375 195.83959961 C-4.20829523 194.49478564 -7.24759165 193.11522377 -10.2734375 191.57421875 C-14.39459863 189.56255404 -15.90333742 190.65308044 -19.88671875 192.58984375 Z " fill="#C15283" transform="translate(263.90625,94.7109375)"/>
<path d="M0 0 C6.22257833 4.71484888 10.19238369 10.71302727 11.37890625 18.48046875 C11.74253882 26.04637228 9.13148197 31.80277705 5 38 C4.34 38 3.68 38 3 38 C3 38.66 3 39.32 3 40 C-2.20702844 44.62846973 -8.16798569 45.5869815 -15 46 C-21.25805855 45.57929018 -26.1865464 44.05343461 -31 40 C-31 39.34 -31 38.68 -31 38 C-31.66 38 -32.32 38 -33 38 C-37.91165857 31.70693745 -39.94770292 24.96376167 -39 17 C-37.36215669 9.36169436 -32.56646508 3.5711725 -26.3125 -0.9375 C-18.40254707 -4.5718027 -7.52530219 -4.56719204 0 0 Z " fill="#C24E81" transform="translate(264,205)"/>
<path d="M0 0 C2.61184856 3.20493207 5.03147462 6.47105589 7.375 9.875 C11.57083622 15.71095436 16.37258428 20.86224012 21.33935547 26.04833984 C22.22131592 26.96993896 22.22131592 26.96993896 23.12109375 27.91015625 C23.91664673 28.73205444 23.91664673 28.73205444 24.72827148 29.57055664 C26 31 26 31 27 33 C26.34 33.66 25.68 34.32 25 35 C24.67386719 34.50628906 24.34773438 34.01257813 24.01171875 33.50390625 C23.35623047 32.54291016 23.35623047 32.54291016 22.6875 31.5625 C22.25824219 30.92441406 21.82898438 30.28632813 21.38671875 29.62890625 C19.9965948 27.7114316 19.9965948 27.7114316 17 27 C16.34 26.34 15.68 25.68 15 25 C14.67 25.99 14.34 26.98 14 28 C13.01 28 12.02 28 11 28 C11.33 28.66 11.66 29.32 12 30 C14.02463255 30.65213292 14.02463255 30.65213292 16 31 C16 31.99 16 32.98 16 34 C17.9375006 36.18777466 17.9375006 36.18777466 20 38 C19.34 38.66 18.68 39.32 18 40 C16.08014172 38.10730953 14.16408963 36.21100983 12.25 34.3125 C11.71117187 33.78205078 11.17234375 33.25160156 10.6171875 32.70507812 C7.52039139 29.62716492 4.56251303 26.55144402 2 23 C2 22.34 2 21.68 2 21 C1.34 21 0.68 21 0 21 C-4 15.58823529 -4 15.58823529 -4 13 C-4.66 13 -5.32 13 -6 13 C-6.33 12.01 -6.66 11.02 -7 10 C-6.030625 10.020625 -5.06125 10.04125 -4.0625 10.0625 C-1.12534105 10.35618499 -1.12534105 10.35618499 0 9 C0.07179964 7.48071962 0.08392007 5.95832518 0.0625 4.4375 C0.05347656 3.61121094 0.04445312 2.78492188 0.03515625 1.93359375 C0.02355469 1.29550781 0.01195312 0.65742188 0 0 Z " fill="#C2618C" transform="translate(149,185)"/>
<path d="M0 0 C4.72172641 1.37776819 8.72562072 3.40898488 12.875 6 C13.46796875 6.35578125 14.0609375 6.7115625 14.671875 7.078125 C16.15294043 7.99269997 17.58212216 8.99023537 19 10 C19 10.66 19 11.32 19 12 C19.66 12 20.32 12 21 12 C21.33 10.02 21.66 8.04 22 6 C22.33 6 22.66 6 23 6 C23.33 9.63 23.66 13.26 24 17 C22.68 17.33 21.36 17.66 20 18 C20.33 20.64 20.66 23.28 21 26 C19.39583333 24.97916667 17.79166667 23.95833333 16.1875 22.9375 C15.19105469 22.30457031 14.19460938 21.67164063 13.16796875 21.01953125 C11.08292034 19.69034503 9.00205546 18.35456954 6.92578125 17.01171875 C5.96027344 16.38910156 4.99476563 15.76648438 4 15.125 C3.113125 14.55007812 2.22625 13.97515625 1.3125 13.3828125 C-1.02631939 11.87151912 -1.02631939 11.87151912 -4 11 C-4 10.34 -4 9.68 -4 9 C-5.32 8.67 -6.64 8.34 -8 8 C-6.68 7.67 -5.36 7.34 -4 7 C-3.67 7.99 -3.34 8.98 -3 10 C-2.54625 9.505 -2.0925 9.01 -1.625 8.5 C0 7 0 7 2 7 C1.34 4.69 0.68 2.38 0 0 Z " fill="#C25B89" transform="translate(265,176)"/>
<path d="M0 0 C0.33 0 0.66 0 1 0 C0.67 2.97 0.34 5.94 0 9 C-0.99 9.33 -1.98 9.66 -3 10 C-3 10.99 -3 11.98 -3 13 C-2.34 13 -1.68 13 -1 13 C-0.67 12.34 -0.34 11.68 0 11 C0.495 12.98 0.495 12.98 1 15 C2.32 14.67 3.64 14.34 5 14 C4.34 15.32 3.68 16.64 3 18 C3 17.34 3 16.68 3 16 C1.80761719 16.3609375 0.61523438 16.721875 -0.61328125 17.09375 C-2.17962324 17.56271467 -3.74603305 18.03145289 -5.3125 18.5 C-6.09818359 18.73847656 -6.88386719 18.97695313 -7.69335938 19.22265625 C-8.45068359 19.44824219 -9.20800781 19.67382812 -9.98828125 19.90625 C-11.03302612 20.22045898 -11.03302612 20.22045898 -12.09887695 20.54101562 C-14 21 -14 21 -17 21 C-17.33 20.01 -17.66 19.02 -18 18 C-17.67 17.67 -17.34 17.34 -17 17 C-18.65 16.67 -20.3 16.34 -22 16 C-22.33 15.01 -22.66 14.02 -23 13 C-23.99 13.33 -24.98 13.66 -26 14 C-27.70016844 14.08178114 -29.40336297 14.10749501 -31.10546875 14.09765625 C-32.08837891 14.09443359 -33.07128906 14.09121094 -34.08398438 14.08789062 C-35.10814453 14.07951172 -36.13230469 14.07113281 -37.1875 14.0625 C-38.22326172 14.05798828 -39.25902344 14.05347656 -40.32617188 14.04882812 C-42.88417266 14.0370401 -45.44205733 14.02058515 -48 14 C-48 13.67 -48 13.34 -48 13 C-47.38705078 12.96036133 -46.77410156 12.92072266 -46.14257812 12.87988281 C-33.3622261 12.01479541 -21.27923967 10.75686261 -9 7 C-8.1028125 6.74089844 -7.205625 6.48179687 -6.28125 6.21484375 C-3.87043746 5.49660194 -3.87043746 5.49660194 -1 4 C-0.26640034 1.96340754 -0.26640034 1.96340754 0 0 Z " fill="#C3608B" transform="translate(205,288)"/>
<path d="M0 0 C-0.5259375 0.86625 -0.5259375 0.86625 -1.0625 1.75 C-2.14917407 4.35801776 -1.93065133 5.39417629 -1 8 C1.86724686 7.42655063 2.8614515 7.1385485 5 5 C5 5.66 5 6.32 5 7 C5.99 7 6.98 7 8 7 C9.28317892 10.84953676 9.06643637 13.94738135 9 18 C8.34 18 7.68 18 7 18 C7 15.03 7 12.06 7 9 C-0.19541408 11.67634304 -7.21067348 14.40565066 -14 18 C-13.67 18.99 -13.34 19.98 -13 21 C-13.66 21.33 -14.32 21.66 -15 22 C-15.66 21.67 -16.32 21.34 -17 21 C-17.25 15.375 -17.25 15.375 -15 12 C-16.32 12.33 -17.64 12.66 -19 13 C-19.66 11.35 -20.32 9.7 -21 8 C-18.730384 6.85170023 -16.45939222 5.70628022 -14.1875 4.5625 C-13.54490234 4.23701172 -12.90230469 3.91152344 -12.24023438 3.57617188 C-7.90400901 1.39682545 -4.91235732 0 0 0 Z " fill="#C25886" transform="translate(278,155)"/>
<path d="M0 0 C4.875 2.75 4.875 2.75 6 5 C6.1235718 7.08060425 6.17560367 9.16576333 6.1875 11.25 C6.20167969 12.36890625 6.21585937 13.4878125 6.23046875 14.640625 C5.99467313 18.07764584 5.22846663 20.79530445 4 24 C3.443125 23.7525 2.88625 23.505 2.3125 23.25 C-0.24050936 22.71646324 -0.24050936 22.71646324 -2.75 24.9375 C-3.86375 25.9584375 -3.86375 25.9584375 -5 27 C-6.29642537 22.59215374 -5.45173063 20.2745402 -4 16 C-2.77571774 9.85834798 -2.77571774 9.85834798 -4 4 C-2.68 2.68 -1.36 1.36 0 0 Z " fill="#C34C80" transform="translate(361,154)"/>
<path d="M0 0 C-0.165 1.134375 -0.33 2.26875 -0.5 3.4375 C-0.91103388 6.36611639 -1.00587275 7.78140318 -0.9296875 10.6171875 C-0.90261719 12.22980469 -0.90261719 12.22980469 -0.875 13.875 C-0.85179687 14.94492188 -0.82859375 16.01484375 -0.8046875 17.1171875 C-1 20 -1 20 -3 23 C-6.4375 21.75 -6.4375 21.75 -10 20 C-11.22591268 16.94868987 -11.16489645 13.82193242 -11.1875 10.5625 C-11.20167969 9.63566406 -11.21585938 8.70882812 -11.23046875 7.75390625 C-10.98203067 4.78528172 -10.33500375 2.65595483 -9 0 C-5.93109813 -1.53445094 -3.29905734 -0.54984289 0 0 Z " fill="#BE4A7D" transform="translate(215,163)"/>
<path d="M0 0 C6.14767103 -0.11384576 8.6982785 1.25307531 13.1875 5.5 C13.98542969 6.3146875 14.78335937 7.129375 15.60546875 7.96875 C18.17119322 10.145221 19.69768392 10.67152806 23 11 C23 11.66 23 12.32 23 13 C20.125 13.125 20.125 13.125 17 13 C16.34 12.34 15.68 11.68 15 11 C12.69 12.32 10.38 13.64 8 15 C7.34 14.34 6.68 13.68 6 13 C5.01 13 4.02 13 3 13 C1.68 12.01 0.36 11.02 -1 10 C-1.33 13.63 -1.66 17.26 -2 21 C-2.33 21 -2.66 21 -3 21 C-2.98259766 19.46279297 -2.98259766 19.46279297 -2.96484375 17.89453125 C-2.95545978 16.533856 -2.94636023 15.17317876 -2.9375 13.8125 C-2.92912109 13.13896484 -2.92074219 12.46542969 -2.91210938 11.77148438 C-2.89393462 8.04565869 -3.10700608 4.6211958 -4 1 C-3.01 1.33 -2.02 1.66 -1 2 C-0.67 2.99 -0.34 3.98 0 5 C0 3.35 0 1.7 0 0 Z " fill="#C24A80" transform="translate(303,205)"/>
<path d="M0 0 C0.66 1.32 1.32 2.64 2 4 C3.32 3.67 4.64 3.34 6 3 C6.7013076 9.59229145 4.49602186 13.49376557 1 19 C-1.475 18.01 -1.475 18.01 -4 17 C-4.12375 17.598125 -4.2475 18.19625 -4.375 18.8125 C-5 21 -5 21 -7 24 C-7 20 -7 20 -6 18 C-6.08651631 16.45386986 -6.24002636 14.91090613 -6.4375 13.375 C-6.53933594 12.55773437 -6.64117187 11.74046875 -6.74609375 10.8984375 C-6.82988281 10.27195312 -6.91367187 9.64546875 -7 9 C-6.01 8.34 -5.02 7.68 -4 7 C-3.65657551 5.66923011 -3.32380126 4.33568021 -3 3 C-1.4375 1.25 -1.4375 1.25 0 0 Z " fill="#C04D80" transform="translate(278,321)"/>
<path d="M0 0 C3.04645972 4.56968959 3.13866635 8.65746008 3.125 14.0625 C3.12757813 15.08472656 3.13015625 16.10695313 3.1328125 17.16015625 C3.01793538 19.61649932 2.70775041 21.65768316 2 24 C0.35 24 -1.3 24 -3 24 C-3.66 25.32 -4.32 26.64 -5 28 C-6.41674913 21.44753528 -7.4074199 13.99076728 -4.5 7.8125 C-3.7575 6.9153125 -3.7575 6.9153125 -3 6 C-2.67 6.66 -2.34 7.32 -2 8 C-1.34 8 -0.68 8 0 8 C0 5.36 0 2.72 0 0 Z " fill="#BF4B7F" transform="translate(211,262)"/>
<path d="M0 0 C2.38564077 0.57584432 4.66682784 1.22227595 7 2 C6.67 6.95 6.34 11.9 6 17 C5.67 16.01 5.34 15.02 5 14 C3.40511797 13.52492876 1.8050688 13.06278746 0.1875 12.671875 C-4.11065198 11.35172832 -8.0337943 9.09083681 -12 7 C-8.73750142 5.20869076 -7.56458519 4.96512043 -4 6 C-3.01 5.67 -2.02 5.34 -1 5 C-0.67 3.35 -0.34 1.7 0 0 Z " fill="#C3608C" transform="translate(276,285)"/>
<path d="M0 0 C0.53753906 0.26039063 1.07507813 0.52078125 1.62890625 0.7890625 C-0.4234306 3.03686 -1.37776636 3.7912867 -4.37109375 4.7890625 C-4.70109375 5.7790625 -5.03109375 6.7690625 -5.37109375 7.7890625 C-6.36109375 7.7890625 -7.35109375 7.7890625 -8.37109375 7.7890625 C-8.70109375 8.7790625 -9.03109375 9.7690625 -9.37109375 10.7890625 C-10.36109375 11.4490625 -11.35109375 12.1090625 -12.37109375 12.7890625 C-11.38109375 13.4490625 -10.39109375 14.1090625 -9.37109375 14.7890625 C-8.38109375 14.1290625 -7.39109375 13.4690625 -6.37109375 12.7890625 C-4.18359375 13.1640625 -4.18359375 13.1640625 -2.37109375 13.7890625 C-3.88781339 18.33922143 -7.54000428 20.28963514 -11.37109375 22.7890625 C-11.70109375 21.7990625 -12.03109375 20.8090625 -12.37109375 19.7890625 C-14.38617733 19.05582454 -14.38617733 19.05582454 -16.37109375 18.7890625 C-16.04109375 17.1390625 -15.71109375 15.4890625 -15.37109375 13.7890625 C-16.69109375 14.1190625 -18.01109375 14.4490625 -19.37109375 14.7890625 C-15.81600009 11.16195037 -12.16327771 7.72084798 -8.30859375 4.4140625 C-7.79232422 3.95128906 -7.27605469 3.48851562 -6.74414062 3.01171875 C-2.91196585 -0.25905462 -2.91196585 -0.25905462 0 0 Z " fill="#C35F8C" transform="translate(200.37109375,199.2109375)"/>
<path d="M0 0 C3.83511953 1.56245611 6.10365784 4.10365784 9 7 C11.16620544 8.29519995 11.16620544 8.29519995 13 9 C12.01 10.65 11.02 12.3 10 14 C9.67 13.34 9.34 12.68 9 12 C8.01 12.495 8.01 12.495 7 13 C3.68839719 13.28796546 1.63992434 13.34590505 -1.3125 11.75 C-3.21632534 9.77566261 -3.74568612 8.71268141 -4 6 C-3.0022242 3.00667261 -2.2477975 2.05233685 0 0 Z " fill="#C24E82" transform="translate(234,343)"/>
<path d="M0 0 C0.66 0 1.32 0 2 0 C2.33 0.99 2.66 1.98 3 3 C4.32 3 5.64 3 7 3 C6.34 5.97 5.68 8.94 5 12 C6.65 12.33 8.3 12.66 10 13 C10 13.66 10 14.32 10 15 C10.66 15.33 11.32 15.66 12 16 C11.00102287 18.99693138 10.34869747 20.02709413 8 22 C7.34 22 6.68 22 6 22 C5.67 21.34 5.34 20.68 5 20 C3.02111039 19.27306096 1.02045442 18.60183749 -1 18 C-0.74863281 17.35933594 -0.49726563 16.71867187 -0.23828125 16.05859375 C1.99863934 9.98379531 1.99863934 9.98379531 0.6875 3.875 C-0.1478125 2.451875 -0.1478125 2.451875 -1 1 C-0.67 0.67 -0.34 0.34 0 0 Z " fill="#BF487D" transform="translate(256,164)"/>
<path d="M0 0 C0.66 0 1.32 0 2 0 C2 0.99 2 1.98 2 3 C2.99 3.33 3.98 3.66 5 4 C4.67 5.65 4.34 7.3 4 9 C4.66 9.33 5.32 9.66 6 10 C6 10.66 6 11.32 6 12 C5.278125 12.2475 4.55625 12.495 3.8125 12.75 C0.75286734 14.10983674 -1.4673738 15.82917754 -4 18 C-4.08160748 16.10489301 -4.13946459 14.20875496 -4.1875 12.3125 C-4.22230469 11.25675781 -4.25710937 10.20101562 -4.29296875 9.11328125 C-3.93762557 5.33716773 -2.69949058 2.69949058 0 0 Z " fill="#C1477D" transform="translate(221,115)"/>
<path d="M0 0 C0.763125 0.639375 1.52625 1.27875 2.3125 1.9375 C4.88246713 4.14232781 4.88246713 4.14232781 8 5 C8.33 7.64 8.66 10.28 9 13 C8.34 13 7.68 13 7 13 C6.67 13.99 6.34 14.98 6 16 C5.01 16 4.02 16 3 16 C3.33 14.35 3.66 12.7 4 11 C3.01 11 2.02 11 1 11 C1 10.01 1 9.02 1 8 C-1.475 7.01 -1.475 7.01 -4 6 C-4 4 -4 4 -2 1.875 C-1.34 1.25625 -0.68 0.6375 0 0 Z " fill="#C1487D" transform="translate(224,330)"/>
<path d="M0 0 C0.66 0 1.32 0 2 0 C2.33 0.66 2.66 1.32 3 2 C5.01669827 3.13350534 5.01669827 3.13350534 7 4 C6.60856977 6.27029534 6.11258722 7.83408198 4.8125 9.75 C2.21324325 11.54259086 0.09479286 11.1289497 -3 11 C-3.99 11.33 -4.98 11.66 -6 12 C-6 11.34 -6 10.68 -6 10 C-6.99 10.33 -7.98 10.66 -9 11 C-8.67 10.01 -8.34 9.02 -8 8 C-7.195625 7.690625 -6.39125 7.38125 -5.5625 7.0625 C-2.88193304 6.24150739 -2.88193304 6.24150739 -1.75 4 C-1.5025 3.34 -1.255 2.68 -1 2 C-0.67 1.34 -0.34 0.68 0 0 Z " fill="#BF487D" transform="translate(154,244)"/>
<path d="M0 0 C1 3 1 3 1 5 C-0.29233607 6.37310707 -1.62437146 7.71034824 -3 9 C-0.36 9.33 2.28 9.66 5 10 C5 10.99 5 11.98 5 13 C4.34 13 3.68 13 3 13 C3 13.66 3 14.32 3 15 C2.34 15 1.68 15 1 15 C1 15.66 1 16.32 1 17 C0.34 17 -0.32 17 -1 17 C-1.33 17.66 -1.66 18.32 -2 19 C-2.4021875 17.2984375 -2.4021875 17.2984375 -2.8125 15.5625 C-3.4003125 13.7990625 -3.4003125 13.7990625 -4 12 C-6.89186786 10.66695302 -6.89186786 10.66695302 -9.1875 11.9375 C-9.785625 12.288125 -10.38375 12.63875 -11 13 C-11 12.34 -11 11.68 -11 11 C-10.34 11 -9.68 11 -9 11 C-9 10.34 -9 9.68 -9 9 C-8.34 9 -7.68 9 -7 9 C-7 8.34 -7 7.68 -7 7 C-6.34 7 -5.68 7 -5 7 C-5 6.34 -5 5.68 -5 5 C-4.34 5 -3.68 5 -3 5 C-2.690625 4.360625 -2.38125 3.72125 -2.0625 3.0625 C-1 1 -1 1 0 0 Z " fill="#C15A88" transform="translate(167,226)"/>
<path d="M0 0 C2.35614166 2.26887715 4.54387683 4.60542061 6.625 7.125 C8.86074915 9.92395521 8.86074915 9.92395521 11 12 C10.01 12.33 9.02 12.66 8 13 C6.68 11.68 5.36 10.36 4 9 C3.01 9.495 3.01 9.495 2 10 C1.01 10.33 0.02 10.66 -1 11 C-1 12.65 -1 14.3 -1 16 C-1.66 16 -2.32 16 -3 16 C-4.65625 13.98828125 -4.65625 13.98828125 -6.5 11.3125 C-7.1084375 10.44238281 -7.716875 9.57226562 -8.34375 8.67578125 C-9.89730485 6.1659108 -11.00165175 3.77041639 -12 1 C-9.525 1.99 -9.525 1.99 -7 3 C-7 3.99 -7 4.98 -7 6 C-6.01 6 -5.02 6 -4 6 C-4.33 7.65 -4.66 9.3 -5 11 C-4.01 10.67 -3.02 10.34 -2 10 C-1.67 9.34 -1.34 8.68 -1 8 C-0.34 8 0.32 8 1 8 C0.67 5.36 0.34 2.72 0 0 Z " fill="#C1678D" transform="translate(232,335)"/>
<path d="M0 0 C0.66 0 1.32 0 2 0 C2.33 0.66 2.66 1.32 3 2 C3.78375 2.103125 4.5675 2.20625 5.375 2.3125 C8 3 8 3 9.8125 5.5625 C10.204375 6.366875 10.59625 7.17125 11 8 C9.02 8.99 9.02 8.99 7 10 C7 10.66 7 11.32 7 12 C0.25 10.375 0.25 10.375 -2 7 C-2.25 4.4375 -2.25 4.4375 -2 2 C-1.34 1.34 -0.68 0.68 0 0 Z " fill="#C45A89" transform="translate(149,196)"/>
<path d="M0 0 C2.97 0.495 2.97 0.495 6 1 C2.25 4 2.25 4 0 4 C0 4.66 0 5.32 0 6 C1.32 6.66 2.64 7.32 4 8 C3.67 8.99 3.34 9.98 3 11 C2.01 11 1.02 11 0 11 C0 11.66 0 12.32 0 13 C-0.66 13 -1.32 13 -2 13 C-2 13.99 -2 14.98 -2 16 C-0.35 16 1.3 16 3 16 C2.01 16.66 1.02 17.32 0 18 C-2.8475987 17.24451463 -5.36772716 16.31613642 -8 15 C-7.67 14.01 -7.34 13.02 -7 12 C-4 11 -4 11 -1 12 C-1.20625 11.13375 -1.4125 10.2675 -1.625 9.375 C-2.04047622 5.63571398 -1.39666276 3.45057859 0 0 Z " fill="#C1608A" transform="translate(263,273)"/>
<path d="M0 0 C0.2475 0.639375 0.495 1.27875 0.75 1.9375 C1.96621634 4.49019039 1.96621634 4.49019039 6 5 C5.01 8.3 4.02 11.6 3 15 C0 14 0 14 -2 11 C-2.165 10.13375 -2.33 9.2675 -2.5 8.375 C-2.665 7.59125 -2.83 6.8075 -3 6 C-3.66 5.67 -4.32 5.34 -5 5 C-3.35 3.35 -1.7 1.7 0 0 Z " fill="#C35C8B" transform="translate(335,206)"/>
<path d="M0 0 C1.75 1.5625 1.75 1.5625 3 3 C2.34 3 1.68 3 1 3 C1 3.66 1 4.32 1 5 C-0.98 5.33 -2.96 5.66 -5 6 C-4.649375 6.598125 -4.29875 7.19625 -3.9375 7.8125 C-3 10 -3 10 -4 13 C-5.98 11.35 -7.96 9.7 -10 8 C-9.690625 7.236875 -9.38125 6.47375 -9.0625 5.6875 C-8.32106407 3.81210323 -7.63771783 1.91315348 -7 0 C-3.83170302 -1.05609899 -3.01480825 -1.13055309 0 0 Z " fill="#C4618C" transform="translate(266,96)"/>
<path d="M0 0 C0.61875 0.391875 1.2375 0.78375 1.875 1.1875 C3.1992287 1.55534131 4.53113912 1.89952981 5.875 2.1875 C5.875 1.5275 5.875 0.8675 5.875 0.1875 C6.535 0.5175 7.195 0.8475 7.875 1.1875 C6.885 2.6725 6.885 2.6725 5.875 4.1875 C3.565 3.8575 1.255 3.5275 -1.125 3.1875 C-2.20025194 5.83978812 -3.21956151 8.47118454 -4.125 11.1875 C-5.625 9.8125 -5.625 9.8125 -7.125 8.1875 C-7.125 7.5275 -7.125 6.8675 -7.125 6.1875 C-8.445 5.5275 -9.765 4.8675 -11.125 4.1875 C-11.125 3.1975 -11.125 2.2075 -11.125 1.1875 C-9.64 2.1775 -9.64 2.1775 -8.125 3.1875 C-8.125 2.5275 -8.125 1.8675 -8.125 1.1875 C-2.69932432 -1.03209459 -2.69932432 -1.03209459 0 0 Z " fill="#B84D7C" transform="translate(320.125,215.8125)"/>
<path d="M0 0 C3.375 0.3125 3.375 0.3125 7 1 C7.66 1.99 8.32 2.98 9 4 C7.35 4.66 5.7 5.32 4 6 C4.309375 6.928125 4.309375 6.928125 4.625 7.875 C4.74875 8.57625 4.8725 9.2775 5 10 C4.34 10.66 3.68 11.32 3 12 C1.0625 11.3125 1.0625 11.3125 -1 10 C-2.1843543 6.86992077 -2.12535092 5.37605276 -1.0625 2.1875 C-0.711875 1.465625 -0.36125 0.74375 0 0 Z " fill="#BC4E7C" transform="translate(235,161)"/>
<path d="M0 0 C2.97 1.65 5.94 3.3 9 5 C9 5.66 9 6.32 9 7 C9.66 7 10.32 7 11 7 C11.33 5.02 11.66 3.04 12 1 C12.33 1 12.66 1 13 1 C13.33 4.63 13.66 8.26 14 12 C12.68 12.33 11.36 12.66 10 13 C10 13.66 10 14.32 10 15 C9.34 15 8.68 15 8 15 C8 14.01 8 13.02 8 12 C7.34 11.67 6.68 11.34 6 11 C6.66 11 7.32 11 8 11 C7.67 9.35 7.34 7.7 7 6 C6.030625 5.7525 5.06125 5.505 4.0625 5.25 C3.051875 4.8375 2.04125 4.425 1 4 C0.67 2.68 0.34 1.36 0 0 Z " fill="#C9658E" transform="translate(275,181)"/>
<path d="M0 0 C0.33 1.98 0.66 3.96 1 6 C2.97536745 5.65213292 2.97536745 5.65213292 5 5 C5.33 4.34 5.66 3.68 6 3 C7.5625 4.5 7.5625 4.5 9 7 C8.96823234 9.77437543 8.50364148 12.25286467 8 15 C7.67 15 7.34 15 7 15 C6.67 13.35 6.34 11.7 6 10 C5.01 10.33 4.02 10.66 3 11 C2.67 10.01 2.34 9.02 2 8 C-0.01508358 7.26676204 -0.01508358 7.26676204 -2 7 C-2 6.34 -2 5.68 -2 5 C-3.32 4.34 -4.64 3.68 -6 3 C-2.25 0 -2.25 0 0 0 Z " fill="#C2638E" transform="translate(280,254)"/>
<path d="M0 0 C0.99 0 1.98 0 3 0 C3.33 3.3 3.66 6.6 4 10 C0 12 0 12 -2.25 11.625 C-2.8275 11.41875 -3.405 11.2125 -4 11 C-2.25 3.375 -2.25 3.375 0 0 Z " fill="#BD4A7C" transform="translate(146,184)"/>
<path d="M0 0 C0.33 0.99 0.66 1.98 1 3 C0.67 3.66 0.34 4.32 0 5 C-0.66 5 -1.32 5 -2 5 C-2 7.64 -2 10.28 -2 13 C-1.01 13.33 -0.02 13.66 1 14 C0.01 15.485 0.01 15.485 -1 17 C-1.07905064 19.33199388 -1.08798769 21.66832622 -1 24 C-1.66 24 -2.32 24 -3 24 C-5.48057114 19.03885772 -5.86194541 14.11412536 -4.39453125 8.8125 C-3.2066976 5.53239082 -1.94919126 2.92378689 0 0 Z " fill="#C27193" transform="translate(230,211)"/>
<path d="M0 0 C0.66 0 1.32 0 2 0 C3.04127245 3.3131396 3.18574123 4.60198308 1.6875 7.8125 C1.130625 8.534375 0.57375 9.25625 0 10 C-0.66 10 -1.32 10 -2 10 C-2.33 10.99 -2.66 11.98 -3 13 C-3.66 12.67 -4.32 12.34 -5 12 C-5.08096803 10.54257537 -5.13917774 9.08387193 -5.1875 7.625 C-5.22230469 6.81289063 -5.25710938 6.00078125 -5.29296875 5.1640625 C-5.19628906 4.44992187 -5.09960938 3.73578125 -5 3 C-4.01 2.34 -3.02 1.68 -2 1 C-1.67 1.66 -1.34 2.32 -1 3 C-0.67 2.01 -0.34 1.02 0 0 Z " fill="#C1487D" transform="translate(288,304)"/>
<path d="M0 0 C1.32 0.66 2.64 1.32 4 2 C4 2.99 4 3.98 4 5 C4.99 5 5.98 5 7 5 C6.67 5.99 6.34 6.98 6 8 C4.02 7.34 2.04 6.68 0 6 C-0.33 9.96 -0.66 13.92 -1 18 C-1.33 18 -1.66 18 -2 18 C-1.98839844 17.36191406 -1.97679687 16.72382813 -1.96484375 16.06640625 C-1.95582031 15.24011719 -1.94679688 14.41382813 -1.9375 13.5625 C-1.92009766 12.32693359 -1.92009766 12.32693359 -1.90234375 11.06640625 C-1.76732652 9.00836062 -1.76732652 9.00836062 -3 8 C-3.04080783 6.00041636 -3.04254356 3.99954746 -3 2 C-2.01 2 -1.02 2 0 2 C0 1.34 0 0.68 0 0 Z " fill="#C0487D" transform="translate(360,271)"/>
<path d="M0 0 C0.66 0.33 1.32 0.66 2 1 C2 2.32 2 3.64 2 5 C2.66 5.33 3.32 5.66 4 6 C4 7.65 4 9.3 4 11 C3.34 11 2.68 11 2 11 C2.34227572 13.97065509 2.34227572 13.97065509 3 17 C3.66 17.33 4.32 17.66 5 18 C4.21302675 21.41021743 3.12880057 24.68885166 2 28 C1.67 28 1.34 28 1 28 C0.80386406 24.97950658 0.61785145 21.95894342 0.4375 18.9375 C0.38142578 18.08994141 0.32535156 17.24238281 0.26757812 16.36914062 C-0.02040528 11.39662713 0.10203247 6.90223755 1 2 C0.34 1.67 -0.32 1.34 -1 1 C-0.67 0.67 -0.34 0.34 0 0 Z " fill="#B94779" transform="translate(200,210)"/>
<path d="M0 0 C0.33 0 0.66 0 1 0 C1.14285714 8.57142857 1.14285714 8.57142857 0 12 C-1.65 12 -3.3 12 -5 12 C-5.66 13.32 -6.32 14.64 -7 16 C-7.75 13.3125 -7.75 13.3125 -8 10 C-6.0625 7.125 -6.0625 7.125 -4 5 C-3.34 5.33 -2.68 5.66 -2 6 C-2.33 6.66 -2.66 7.32 -3 8 C-2.34 8 -1.68 8 -1 8 C-1.33 6.35 -1.66 4.7 -2 3 C-1.34 3 -0.68 3 0 3 C0 2.01 0 1.02 0 0 Z " fill="#B74677" transform="translate(213,274)"/>
<path d="M0 0 C1.77706209 2.66559313 2.87548273 5.0280615 4 8 C3.2575 8.12375 2.515 8.2475 1.75 8.375 C-0.80141485 8.95486701 -2.7267573 9.73708739 -5 11 C-5.66 10.34 -6.32 9.68 -7 9 C-7.66 9.99 -8.32 10.98 -9 12 C-9 10.35 -9 8.7 -9 7 C-8.34 6.67 -7.68 6.34 -7 6 C-6.34 6.33 -5.68 6.66 -5 7 C-4.67 6.34 -4.34 5.68 -4 5 C-3.67 5.33 -3.34 5.66 -3 6 C-3 4.35 -3 2.7 -3 1 C-2.01 0.67 -1.02 0.34 0 0 Z " fill="#C86691" transform="translate(290,141)"/>
<path d="M0 0 C0.66 0.66 1.32 1.32 2 2 C0.2984375 2.18175781 0.2984375 2.18175781 -1.4375 2.3671875 C-2.95836512 2.53617251 -4.4791967 2.70545953 -6 2.875 C-7.11568359 2.99294922 -7.11568359 2.99294922 -8.25390625 3.11328125 C-12.09724564 3.5477457 -15.71068563 4.14567175 -19.4375 5.1953125 C-20.613125 5.46085938 -21.78875 5.72640625 -23 6 C-23.66 5.34 -24.32 4.68 -25 4 C-16.80482371 1.42483591 -8.69309392 -1.02578508 0 0 Z " fill="#C07D99" transform="translate(169,139)"/>
<path d="M0 0 C1.32 0.66 2.64 1.32 4 2 C2.7580393 5.43927579 1.44259716 8.25207819 -1 11 C-1.66 11 -2.32 11 -3 11 C-3 11.66 -3 12.32 -3 13 C-3.66 13 -4.32 13 -5 13 C-5.33 13.66 -5.66 14.32 -6 15 C-6 13.35 -6 11.7 -6 10 C-5.01 9.67 -4.02 9.34 -3 9 C-3 8.01 -3 7.02 -3 6 C-2.04788888 3.97676387 -1.05226728 1.97300116 0 0 Z " fill="#C2638F" transform="translate(274,338)"/>
<path d="M0 0 C4.75 0.75 4.75 0.75 7 3 C6.34 3 5.68 3 5 3 C4.938125 3.61875 4.87625 4.2375 4.8125 4.875 C4 7 4 7 1.5625 8.3125 C-1 9 -1 9 -3 8 C-1.125 2.25 -1.125 2.25 0 0 Z " fill="#C25083" transform="translate(221,256)"/>
<path d="M0 0 C-2.51546072 3.77319108 -4.1588808 3.97166115 -8.4375 5.25 C-9.59121094 5.60578125 -10.74492187 5.9615625 -11.93359375 6.328125 C-15 7 -15 7 -18 6 C-17.01 5.67 -16.02 5.34 -15 5 C-14.26676204 2.98491642 -14.26676204 2.98491642 -14 1 C-13.34 1 -12.68 1 -12 1 C-11.67 1.66 -11.34 2.32 -11 3 C-10.484375 2.505 -9.96875 2.01 -9.4375 1.5 C-6.19319983 -0.49649241 -3.73782666 -0.21564385 0 0 Z " fill="#B94777" transform="translate(297,148)"/>
<path d="M0 0 C0.99 0.33 1.98 0.66 3 1 C3 1.66 3 2.32 3 3 C3.97648017 4.02297922 4.98131338 5.01904252 6 6 C7.75 8 7.75 8 9 10 C8.67 10.99 8.34 11.98 8 13 C6.35 11.68 4.7 10.36 3 9 C2.67 12.63 2.34 16.26 2 20 C1.67 20 1.34 20 1 20 C1.01740234 18.46279297 1.01740234 18.46279297 1.03515625 16.89453125 C1.04454022 15.533856 1.05363977 14.17317876 1.0625 12.8125 C1.07087891 12.13896484 1.07925781 11.46542969 1.08789062 10.77148438 C1.10606538 7.04565869 0.89299392 3.6211958 0 0 Z " fill="#D088AC" transform="translate(299,206)"/>
<path d="M0 0 C3.16242675 2.58744007 4.08288297 5.04934204 5 9 C5.25482943 12.68202525 5.40805233 16.32752905 5 20 C4.34 20.66 3.68 21.32 3 22 C2.96132813 20.57107422 2.96132813 20.57107422 2.921875 19.11328125 C2.86515625 17.85902344 2.8084375 16.60476562 2.75 15.3125 C2.70359375 14.07113281 2.6571875 12.82976562 2.609375 11.55078125 C1.92862155 7.58408325 0.74661246 5.87295664 -2 3 C-1.34 2.01 -0.68 1.02 0 0 Z " fill="#BF6E90" transform="translate(364,151)"/>
<path d="M0 0 C0.33 0.66 0.66 1.32 1 2 C1.66 2 2.32 2 3 2 C3 4.25 3 4.25 2 7 C-0.48947194 8.76178014 -3.0894 10.08336933 -6 11 C-6.66 10.67 -7.32 10.34 -8 10 C-5.36 6.7 -2.72 3.4 0 0 Z " fill="#BD5082" transform="translate(344,195)"/>
<path d="M0 0 C5.23435005 4.27293882 9.67106815 8.81580806 14 14 C13.34 14.66 12.68 15.32 12 16 C10.86800647 15.0919838 9.74467637 14.17316174 8.625 13.25 C7.99851562 12.73953125 7.37203125 12.2290625 6.7265625 11.703125 C4.90129104 9.90263098 4.05093155 8.3176794 3 6 C2.195625 4.948125 2.195625 4.948125 1.375 3.875 C0 2 0 2 0 0 Z " fill="#C27094" transform="translate(334,228)"/>
<path d="M0 0 C0.99 0 1.98 0 3 0 C2.45230629 4.18238834 0.10111111 6.59868545 -2.5625 9.75 C-3.80193359 11.22726563 -3.80193359 11.22726563 -5.06640625 12.734375 C-5.70449219 13.48203125 -6.34257812 14.2296875 -7 15 C-7.66 14.67 -8.32 14.34 -9 14 C-9 13.34 -9 12.68 -9 12 C-8.01 12 -7.02 12 -6 12 C-6 10.02 -6 8.04 -6 6 C-5.34 6.33 -4.68 6.66 -4 7 C-3.34 5.68 -2.68 4.36 -2 3 C-1.34 3 -0.68 3 0 3 C0 2.01 0 1.02 0 0 Z " fill="#BF6D8E" transform="translate(351,199)"/>
<path d="M0 0 C0.99 0 1.98 0 3 0 C3.33 0.66 3.66 1.32 4 2 C4.99 2.33 5.98 2.66 7 3 C5.86500606 6.29148243 5.00716624 6.9959869 1.875 8.75 C0.451875 9.36875 0.451875 9.36875 -1 10 C-0.67 6.7 -0.34 3.4 0 0 Z " fill="#BC487A" transform="translate(282,296)"/>
<path d="M0 0 C1.32 0.33 2.64 0.66 4 1 C3.01 2.485 3.01 2.485 2 4 C1.34 4 0.68 4 0 4 C-0.2475 4.5775 -0.495 5.155 -0.75 5.75 C-2.82554091 9.48597363 -4.93173944 11.64391315 -9 13 C-8.34 11.35 -7.68 9.7 -7 8 C-6.34 8 -5.68 8 -5 8 C-4.731875 7.4225 -4.46375 6.845 -4.1875 6.25 C-2.98280141 3.9674132 -1.59201885 2.0262058 0 0 Z " fill="#C16A8E" transform="translate(154,240)"/>
<path d="M0 0 C1.98 0.66 3.96 1.32 6 2 C5.814375 2.763125 5.62875 3.52625 5.4375 4.3125 C4.77180827 7.08967375 4.77180827 7.08967375 6 10 C2.4213696 8.34832443 -0.74820188 6.21713508 -4 4 C-2.68 3.34 -1.36 2.68 0 2 C0 1.34 0 0.68 0 0 Z " fill="#C1497E" transform="translate(227,160)"/>
<path d="M0 0 C-0.33 1.32 -0.66 2.64 -1 4 C-1.66 4 -2.32 4 -3 4 C-3 4.66 -3 5.32 -3 6 C-4.65 5.67 -6.3 5.34 -8 5 C-8.66 6.32 -9.32 7.64 -10 9 C-10.33 8.34 -10.66 7.68 -11 7 C-13.02463255 6.34786708 -13.02463255 6.34786708 -15 6 C-12.87717331 4.99539469 -10.75166979 3.99644398 -8.625 3 C-7.44164062 2.443125 -6.25828125 1.88625 -5.0390625 1.3125 C-2 0 -2 0 0 0 Z " fill="#C46D96" transform="translate(235,280)"/>
<path d="M0 0 C2.14285714 7.42857143 2.14285714 7.42857143 3 11 C1.68 11.33 0.36 11.66 -1 12 C-4.05153707 5.65280289 -4.05153707 5.65280289 -3.8125 2.625 C-2.91484999 0.82969999 -2.12825176 0 0 0 Z " fill="#BD4A7C" transform="translate(333,211)"/>
<path d="M0 0 C1.65 0.33 3.3 0.66 5 1 C5 3.31 5 5.62 5 8 C2.75 8.6875 2.75 8.6875 0 9 C-2.3125 7.5625 -2.3125 7.5625 -4 6 C-3.01 5.34 -2.02 4.68 -1 4 C-0.27617533 1.94074861 -0.27617533 1.94074861 0 0 Z " fill="#C44A7F" transform="translate(257,277)"/>
<path d="M0 0 C0.66 0.99 1.32 1.98 2 3 C1.01 3.33 0.02 3.66 -1 4 C-1.33 4.99 -1.66 5.98 -2 7 C-5.0625 8.1875 -5.0625 8.1875 -8 9 C-8.66 7.68 -9.32 6.36 -10 5 C-9.34 5 -8.68 5 -8 5 C-7.67 4.01 -7.34 3.02 -7 2 C-3.86650268 0.95550089 -3.01031744 1.06576355 0 2 C0 1.34 0 0.68 0 0 Z " fill="#C65989" transform="translate(348,243)"/>
<path d="M0 0 C0.66 0 1.32 0 2 0 C1.67 0.598125 1.34 1.19625 1 1.8125 C-0.20787988 4.05386471 -0.20787988 4.05386471 0 7 C0 7.99 0 8.98 0 10 C-1.32 10 -2.64 10 -4 10 C-5.8125 7.6875 -5.8125 7.6875 -7 5 C-6.67 4.01 -6.34 3.02 -6 2 C-4.02 2 -2.04 2 0 2 C0 1.34 0 0.68 0 0 Z " fill="#BD497C" transform="translate(267,99)"/>
<path d="M0 0 C0.66 0 1.32 0 2 0 C2 0.99 2 1.98 2 3 C2.99 3.66 3.98 4.32 5 5 C4.01 5.33 3.02 5.66 2 6 C1.67 6.66 1.34 7.32 1 8 C0.34 8 -0.32 8 -1 8 C-1 8.66 -1 9.32 -1 10 C-1.66 10 -2.32 10 -3 10 C-3.6875 8.3125 -3.6875 8.3125 -4 6 C-2.85213059 3.75643706 -1.7904233 1.7904233 0 0 Z " fill="#BE5382" transform="translate(221,115)"/>
<path d="M0 0 C2.45996775 2.45996775 2.29676247 3.23618554 2.3125 6.625 C2.21667252 11.70385619 1.16665819 15.4166846 -1 20 C-1.66 20.33 -2.32 20.66 -3 21 C-2.125 15.25 -2.125 15.25 -1 13 C-0.77049681 10.795636 -0.58924067 8.58607827 -0.4375 6.375 C-0.31181641 4.59222656 -0.31181641 4.59222656 -0.18359375 2.7734375 C-0.12300781 1.85820312 -0.06242187 0.94296875 0 0 Z " fill="#C17495" transform="translate(367,280)"/>
<path d="M0 0 C2.02045442 0.60183749 4.02111039 1.27306096 6 2 C6.33 2.66 6.66 3.32 7 4 C6.01 4 5.02 4 4 4 C2.16308743 7.78187881 1.84162374 9.94568308 3 14 C2.01 13.67 1.02 13.34 0 13 C-1.125 6.25 -1.125 6.25 0 4 C0 2.68 0 1.36 0 0 Z " fill="#C56E92" transform="translate(232,158)"/>
<path d="M0 0 C2.62697064 -0.22137393 5.00893964 -0.28162025 7.625 -0.1875 C8.33140625 -0.17396484 9.0378125 -0.16042969 9.765625 -0.14648438 C11.51074128 -0.1111104 13.25546608 -0.05730221 15 0 C15 0.66 15 1.32 15 2 C6.585 2.495 6.585 2.495 -2 3 C-1.34 2.01 -0.68 1.02 0 0 Z " fill="#B7537C" transform="translate(324,140)"/>
<path d="M0 0 C0.33 0 0.66 0 1 0 C1 2.64 1 5.28 1 8 C0.34 8 -0.32 8 -1 8 C-1.226875 8.639375 -1.45375 9.27875 -1.6875 9.9375 C-3 12 -3 12 -5.58203125 12.62890625 C-6.37996094 12.75136719 -7.17789062 12.87382812 -8 13 C-7.50628906 12.22914063 -7.01257813 11.45828125 -6.50390625 10.6640625 C-5.86324219 9.66117187 -5.22257812 8.65828125 -4.5625 7.625 C-3.92441406 6.62726563 -3.28632813 5.62953125 -2.62890625 4.6015625 C-1.03100789 2.14169479 -1.03100789 2.14169479 0 0 Z " fill="#C16A93" transform="translate(270,330)"/>
<path d="M0 0 C0.99 0.66 1.98 1.32 3 2 C1.47793991 4.62901288 0.15634036 6.84365964 -2 9 C-3.65 7.35 -5.3 5.7 -7 4 C-4.69 2.68 -2.38 1.36 0 0 Z " fill="#C15D8A" transform="translate(197,241)"/>
<path d="M0 0 C8.23880597 -0.32309043 8.23880597 -0.32309043 12 2 C12.8125 4.625 12.8125 4.625 13 7 C11.125 6.6875 11.125 6.6875 9 6 C8.34 5.01 7.68 4.02 7 3 C6.01 3.495 6.01 3.495 5 4 C4.67 3.34 4.34 2.68 4 2 C2.68 2 1.36 2 0 2 C0 1.34 0 0.68 0 0 Z " fill="#BA497C" transform="translate(252,349)"/>
<path d="M0 0 C2.9375 0.8125 2.9375 0.8125 6 2 C6.33 2.99 6.66 3.98 7 5 C5 7 5 7 1.875 7.125 C0.451875 7.063125 0.451875 7.063125 -1 7 C-0.67 4.69 -0.34 2.38 0 0 Z " fill="#BF4A7F" transform="translate(276,260)"/>
<path d="M0 0 C0.33 0.99 0.66 1.98 1 3 C1.66 3 2.32 3 3 3 C2.67 2.01 2.34 1.02 2 0 C3.98 0 5.96 0 8 0 C7.01 0.495 7.01 0.495 6 1 C6 1.66 6 2.32 6 3 C4.3203125 4.2890625 4.3203125 4.2890625 2.125 5.625 C1.04605469 6.29402344 1.04605469 6.29402344 -0.0546875 6.9765625 C-2 8 -2 8 -4 8 C-4 7.34 -4 6.68 -4 6 C-4.66 5.67 -5.32 5.34 -6 5 C-4.02 5 -2.04 5 0 5 C-0.2784375 4.0409375 -0.2784375 4.0409375 -0.5625 3.0625 C-0.706875 2.381875 -0.85125 1.70125 -1 1 C-0.67 0.67 -0.34 0.34 0 0 Z " fill="#C2648C" transform="translate(356,302)"/>
<path d="M0 0 C0.33 0.66 0.66 1.32 1 2 C2.65 2 4.3 2 6 2 C4.25 4.5 4.25 4.5 2 7 C0.68 7 -0.64 7 -2 7 C-3 4 -3 4 -2 1 C-1.34 0.67 -0.68 0.34 0 0 Z " fill="#BF5583" transform="translate(155,248)"/>
<path d="M0 0 C0.33 0 0.66 0 1 0 C1.03738281 0.86882812 1.07476562 1.73765625 1.11328125 2.6328125 C1.52448963 11.28042899 1.52448963 11.28042899 5 19 C4.01 19 3.02 19 2 19 C2 18.34 2 17.68 2 17 C1.01 16.67 0.02 16.34 -1 16 C-0.67 10.72 -0.34 5.44 0 0 Z " fill="#C77E9D" transform="translate(298,182)"/>
<path d="M0 0 C0.33 0.66 0.66 1.32 1 2 C1.99 2 2.98 2 4 2 C5.28317892 5.84953676 5.06643637 8.94738135 5 13 C4.34 13 3.68 13 3 13 C3 10.03 3 7.06 3 4 C0.69 4.66 -1.62 5.32 -4 6 C-4 4 -4 4 -2 1.875 C-1.34 1.25625 -0.68 0.6375 0 0 Z " fill="#C27496" transform="translate(282,160)"/>
<path d="M0 0 C2.475 0.99 2.475 0.99 5 2 C5 2.99 5 3.98 5 5 C5.99 5 6.98 5 8 5 C7.67 6.65 7.34 8.3 7 10 C7.66 10.33 8.32 10.66 9 11 C8.01 11 7.02 11 6 11 C4.39453125 9.1015625 4.39453125 9.1015625 2.8125 6.625 C2.01779297 5.40683594 2.01779297 5.40683594 1.20703125 4.1640625 C0 2 0 2 0 0 Z " fill="#C87B9B" transform="translate(220,336)"/>
<path d="M0 0 C0.66 0 1.32 0 2 0 C2.33 1.32 2.66 2.64 3 4 C2.360625 4.103125 1.72125 4.20625 1.0625 4.3125 C0.381875 4.539375 -0.29875 4.76625 -1 5 C-1.33 5.99 -1.66 6.98 -2 8 C-2.99 8 -3.98 8 -5 8 C-5.33 7.34 -5.66 6.68 -6 6 C-6.66 6 -7.32 6 -8 6 C-8 5.34 -8 4.68 -8 4 C-7.236875 3.896875 -6.47375 3.79375 -5.6875 3.6875 C-2.78105605 2.94399108 -1.96433971 2.15141968 0 0 Z " fill="#C1477D" transform="translate(230,108)"/>
<path d="M0 0 C0.33 0.66 0.66 1.32 1 2 C3.02463255 2.65213292 3.02463255 2.65213292 5 3 C3.0373772 5.04795423 1.5722693 5.94976638 -1.26953125 6.19921875 C-3.51954383 6.18858877 -5.75385562 6.12958525 -8 6 C-7.01 5.34 -6.02 4.68 -5 4 C-3.32576317 2.67618483 -1.65788785 1.34423339 0 0 Z " fill="#C56892" transform="translate(261,343)"/>
<path d="M0 0 C0 0.66 0 1.32 0 2 C-4.455 2.495 -4.455 2.495 -9 3 C-9.33 4.32 -9.66 5.64 -10 7 C-10.99 7.33 -11.98 7.66 -13 8 C-12.7323244 4.69866765 -12.4396165 3.37496702 -9.875 1.1875 C-6.41554399 -0.24140574 -3.70840602 -0.21814153 0 0 Z " fill="#BF7495" transform="translate(326,294)"/>
<path d="M0 0 C3.45201639 1.47721422 5.64961936 3.43794001 8.25 6.125 C8.95640625 6.84945312 9.6628125 7.57390625 10.390625 8.3203125 C11.18726563 9.15175781 11.18726563 9.15175781 12 10 C11.01 11.485 11.01 11.485 10 13 C9.51080078 12.25943359 9.51080078 12.25943359 9.01171875 11.50390625 C8.57472656 10.86324219 8.13773438 10.22257813 7.6875 9.5625 C7.25824219 8.92441406 6.82898438 8.28632813 6.38671875 7.62890625 C4.9965948 5.7114316 4.9965948 5.7114316 2 5 C0.8125 2.4375 0.8125 2.4375 0 0 Z " fill="#B55C83" transform="translate(164,207)"/>
<path d="M0 0 C3 2 3 2 5 5 C3.8125 6.5625 3.8125 6.5625 2 8 C-0.6875 7.6875 -0.6875 7.6875 -3 7 C-3.33 5.68 -3.66 4.36 -4 3 C-2.68 2.67 -1.36 2.34 0 2 C0 1.34 0 0.68 0 0 Z " fill="#BE487E" transform="translate(224,186)"/>
<path d="M0 0 C0 3.61537605 -0.89229241 5.11165997 -3 8 C-3.99 8 -4.98 8 -6 8 C-6.66 7.01 -7.32 6.02 -8 5 C-7.360625 4.71125 -6.72125 4.4225 -6.0625 4.125 C-3.84793921 3.17176549 -3.84793921 3.17176549 -3 1 C-2.01 0.67 -1.02 0.34 0 0 Z " fill="#C3497F" transform="translate(195,206)"/>
<path d="M0 0 C-3.96 2.97 -7.92 5.94 -12 9 C-12.33 8.01 -12.66 7.02 -13 6 C-8.25 2 -8.25 2 -6 2 C-6 1.34 -6 0.68 -6 0 C-3 -1 -3 -1 0 0 Z " fill="#C27697" transform="translate(225,195)"/>
<path d="M0 0 C6.75 0.75 6.75 0.75 9 3 C8.01 3 7.02 3 6 3 C5.67 3.66 5.34 4.32 5 5 C3.02 5 1.04 5 -1 5 C-0.67 3.35 -0.34 1.7 0 0 Z " fill="#B94F7C" transform="translate(306,297)"/>
<path d="M0 0 C0.99 0 1.98 0 3 0 C3.33 1.32 3.66 2.64 4 4 C-0.625 8 -0.625 8 -4 8 C-4 7.01 -4 6.02 -4 5 C-3.34 5 -2.68 5 -2 5 C-2 4.34 -2 3.68 -2 3 C-1.01 2.67 -0.02 2.34 1 2 C0.67 1.34 0.34 0.68 0 0 Z " fill="#C0487C" transform="translate(265,281)"/>
<path d="M0 0 C0 3.61700785 -0.50605473 7.11307173 -1 10.6875 C-1.09539062 11.38939453 -1.19078125 12.09128906 -1.2890625 12.81445312 C-1.52426766 14.54321104 -1.76189855 16.27163861 -2 18 C-2.33 18 -2.66 18 -3 18 C-2.98839844 17.15695313 -2.97679687 16.31390625 -2.96484375 15.4453125 C-2.95582031 14.34960938 -2.94679688 13.25390625 -2.9375 12.125 C-2.92589844 11.03445312 -2.91429687 9.94390625 -2.90234375 8.8203125 C-2.80255697 6.04822454 -2.80255697 6.04822454 -4 4 C-2.68 2.68 -1.36 1.36 0 0 Z " fill="#B74879" transform="translate(361,154)"/>
<path d="M0 0 C1.25955231 3.77865693 0.48087189 5.03411786 -0.9375 8.6875 C-1.31777344 9.68136719 -1.69804687 10.67523438 -2.08984375 11.69921875 C-2.39019531 12.45847656 -2.69054687 13.21773438 -3 14 C-3.66 13.67 -4.32 13.34 -5 13 C-4.4140625 6.84765625 -4.4140625 6.84765625 -4 5 C-3.34 4.67 -2.68 4.34 -2 4 C-0.86649466 1.98330173 -0.86649466 1.98330173 0 0 Z " fill="#C67A9C" transform="translate(290,309)"/>
<path d="M0 0 C0.66 0.33 1.32 0.66 2 1 C2 1.99 2 2.98 2 4 C3.9375006 6.18777466 3.9375006 6.18777466 6 8 C5.34 8.66 4.68 9.32 4 10 C2.99105628 9.07213211 1.99309093 8.13231567 1 7.1875 C0.1646875 6.40439453 0.1646875 6.40439453 -0.6875 5.60546875 C-2 4 -2 4 -2 1 C-1.34 0.67 -0.68 0.34 0 0 Z " fill="#B85B81" transform="translate(163,215)"/>
<path d="M0 0 C0.67095703 0.63228516 0.67095703 0.63228516 1.35546875 1.27734375 C5.98399766 5.5377979 5.98399766 5.5377979 12 7 C12 7.66 12 8.32 12 9 C9.125 9.125 9.125 9.125 6 9 C5.34 8.34 4.68 7.68 4 7 C3.34 6.67 2.68 6.34 2 6 C2 5.34 2 4.68 2 4 C1.34 4 0.68 4 0 4 C0 2.68 0 1.36 0 0 Z " fill="#C8809E" transform="translate(314,209)"/>
<path d="M0 0 C0.33 1.32 0.66 2.64 1 4 C4.465 3.505 4.465 3.505 8 3 C6.5 4.5625 6.5 4.5625 4 6 C1.22562457 5.96823234 -1.25286467 5.50364148 -4 5 C-4 4.34 -4 3.68 -4 3 C-2 1.375 -2 1.375 0 0 Z " fill="#BD688B" transform="translate(248,355)"/>
<path d="M0 0 C1.60725635 3.21451269 1.05748185 6.43612536 1 10 C0.01 9.67 -0.98 9.34 -2 9 C-2.33 8.01 -2.66 7.02 -3 6 C-5.01508358 5.26676204 -5.01508358 5.26676204 -7 5 C-6.67 4.34 -6.34 3.68 -6 3 C-4.66923011 2.65657551 -3.33568021 2.32380126 -2 2 C-1.34 1.34 -0.68 0.68 0 0 Z " fill="#C45285" transform="translate(266,345)"/>
<path d="M0 0 C0.99 0.33 1.98 0.66 3 1 C2.67 1.66 2.34 2.32 2 3 C1.34 3 0.68 3 0 3 C0 3.66 0 4.32 0 5 C-0.66 5 -1.32 5 -2 5 C-2 5.66 -2 6.32 -2 7 C-3.98 7 -5.96 7 -8 7 C-7.67 6.34 -7.34 5.68 -7 5 C-6.34 5.33 -5.68 5.66 -5 6 C-4.34 4.68 -3.68 3.36 -3 2 C-2.01 2 -1.02 2 0 2 C0 1.34 0 0.68 0 0 Z " fill="#BA4778" transform="translate(150,300)"/>
<path d="M0 0 C2 3 2 3 1.625 5.6875 C1.41875 6.450625 1.2125 7.21375 1 8 C-1.31 8.33 -3.62 8.66 -6 9 C-4.02 6.03 -2.04 3.06 0 0 Z " fill="#C36C96" transform="translate(358,289)"/>
<path d="M0 0 C-0.66 1.98 -1.32 3.96 -2 6 C-3.32 6 -4.64 6 -6 6 C-6 4.68 -6 3.36 -6 2 C-3 0 -3 0 0 0 Z " fill="#BE487C" transform="translate(342,204)"/>
<path d="M0 0 C2.97 0 5.94 0 9 0 C8.01 1.485 8.01 1.485 7 3 C6.34 3 5.68 3 5 3 C5 3.66 5 4.32 5 5 C2.525 4.01 2.525 4.01 0 3 C0 2.01 0 1.02 0 0 Z " fill="#BF497D" transform="translate(151,203)"/>
<path d="M0 0 C0.33 0.66 0.66 1.32 1 2 C3.02463255 2.65213292 3.02463255 2.65213292 5 3 C4.34 3.433125 3.68 3.86625 3 4.3125 C2.34 4.869375 1.68 5.42625 1 6 C1 6.99 1 7.98 1 9 C0.01 8.67 -0.98 8.34 -2 8 C-2.125 5.125 -2.125 5.125 -2 2 C-1.34 1.34 -0.68 0.68 0 0 Z " fill="#C56E97" transform="translate(263,168)"/>
<path d="M0 0 C8.6309795 3.85421412 8.6309795 3.85421412 11 8 C6.52761347 6.58192622 2.28853694 4.88695626 -2 3 C-1.34 2.67 -0.68 2.34 0 2 C0 1.34 0 0.68 0 0 Z " fill="#C77B9B" transform="translate(220,162)"/>
<path d="M0 0 C2.31 0.33 4.62 0.66 7 1 C7.33 1.99 7.66 2.98 8 4 C5.75 4.6875 5.75 4.6875 3 5 C0.6875 3.5625 0.6875 3.5625 -1 2 C-0.67 1.34 -0.34 0.68 0 0 Z " fill="#B95E87" transform="translate(241,347)"/>
<path d="M0 0 C3.4375 1.1875 3.4375 1.1875 4.4375 3.1875 C1.7975 2.8575 -0.8425 2.5275 -3.5625 2.1875 C-3.5625 3.5075 -3.5625 4.8275 -3.5625 6.1875 C-4.2225 6.1875 -4.8825 6.1875 -5.5625 6.1875 C-5.5625 4.2075 -5.5625 2.2275 -5.5625 0.1875 C-3.5625 -0.8125 -3.5625 -0.8125 0 0 Z " fill="#BF6D91" transform="translate(295.5625,301.8125)"/>
<path d="M0 0 C0.33 0 0.66 0 1 0 C1.38855926 2.4568901 1.76130088 4.91441833 2.125 7.375 C2.23714844 8.07367188 2.34929687 8.77234375 2.46484375 9.4921875 C2.72816466 11.31787914 2.8718116 13.1598762 3 15 C2.34 15.66 1.68 16.32 1 17 C-0.13480527 13.39006828 -0.10015767 10.0157673 -0.0625 6.25 C-0.05347656 5.07953125 -0.04445312 3.9090625 -0.03515625 2.703125 C-0.02355469 1.81109375 -0.01195312 0.9190625 0 0 Z " fill="#BD7393" transform="translate(203,269)"/>
<path d="M0 0 C2.475 0.99 2.475 0.99 5 2 C5 2.99 5 3.98 5 5 C3.68 5 2.36 5 1 5 C0.67 5.66 0.34 6.32 0 7 C-0.66 5.68 -1.32 4.36 -2 3 C-1.34 2.01 -0.68 1.02 0 0 Z " fill="#C0467C" transform="translate(212,250)"/>
<path d="M0 0 C0.33 0.66 0.66 1.32 1 2 C0.34 2 -0.32 2 -1 2 C-1.33 2.99 -1.66 3.98 -2 5 C-2.66 5 -3.32 5 -4 5 C-4 5.66 -4 6.32 -4 7 C-4.66 7 -5.32 7 -6 7 C-6.33 7.66 -6.66 8.32 -7 9 C-7.66 8.67 -8.32 8.34 -9 8 C-7.82255415 4.46766245 -7.04394359 4.13691925 -3.9375 2.3125 C-3.20402344 1.87550781 -2.47054687 1.43851563 -1.71484375 0.98828125 C-1.14894531 0.66214844 -0.58304688 0.33601562 0 0 Z " fill="#C47696" transform="translate(225,181)"/>
<path d="M0 0 C0.58265625 0.22558594 1.1653125 0.45117188 1.765625 0.68359375 C-0.28671185 2.93139125 -1.24104761 3.68581795 -4.234375 4.68359375 C-4.564375 5.34359375 -4.894375 6.00359375 -5.234375 6.68359375 C-6.554375 6.35359375 -7.874375 6.02359375 -9.234375 5.68359375 C-8.16544282 4.64769037 -7.07859012 3.63025433 -5.984375 2.62109375 C-5.38109375 2.05261719 -4.7778125 1.48414063 -4.15625 0.8984375 C-2.234375 -0.31640625 -2.234375 -0.31640625 0 0 Z " fill="#BE7195" transform="translate(200.234375,199.31640625)"/>
<path d="M0 0 C-1.66666667 3.33333333 -3.33333333 6.66666667 -5 10 C-5.66 9.67 -6.32 9.34 -7 9 C-6.67 7.02 -6.34 5.04 -6 3 C-5.34 3 -4.68 3 -4 3 C-4 2.34 -4 1.68 -4 1 C-2 0 -2 0 0 0 Z " fill="#C2688E" transform="translate(148,153)"/>
<path d="M0 0 C0.66 0 1.32 0 2 0 C1.75 2.875 1.75 2.875 1 6 C-1.0625 7.375 -1.0625 7.375 -3 8 C-3 6.02 -3 4.04 -3 2 C-2.01 2 -1.02 2 0 2 C0 1.34 0 0.68 0 0 Z " fill="#C84780" transform="translate(217,144)"/>
<path d="M0 0 C1.98 0.99 3.96 1.98 6 3 C5.01 3.495 5.01 3.495 4 4 C4 4.66 4 5.32 4 6 C3.01 6.33 2.02 6.66 1 7 C1 6.34 1 5.68 1 5 C0.34 5 -0.32 5 -1 5 C-1.33 4.01 -1.66 3.02 -2 2 C-1.34 2 -0.68 2 0 2 C0 1.34 0 0.68 0 0 Z " fill="#C7618F" transform="translate(146,296)"/>
<path d="M0 0 C-0.33 1.98 -0.66 3.96 -1 6 C-3.31 5.67 -5.62 5.34 -8 5 C-3.16129032 0 -3.16129032 0 0 0 Z " fill="#C2698F" transform="translate(288,249)"/>
<path d="M0 0 C0.99 0 1.98 0 3 0 C3 0.99 3 1.98 3 3 C2.34 3 1.68 3 1 3 C1 3.66 1 4.32 1 5 C0.34 5 -0.32 5 -1 5 C-1 5.66 -1 6.32 -1 7 C-1.66 7 -2.32 7 -3 7 C-3.33 7.66 -3.66 8.32 -4 9 C-4 8.01 -4 7.02 -4 6 C-3.34 6 -2.68 6 -2 6 C-2.33 4.68 -2.66 3.36 -3 2 C-2.01 2 -1.02 2 0 2 C0 1.34 0 0.68 0 0 Z " fill="#C26E92" transform="translate(169,236)"/>
<path d="M0 0 C2.18975773 3.28463659 2.99806563 6.20696275 4 10 C3.01 10 2.02 10 1 10 C-0.8125 7.8125 -0.8125 7.8125 -2 5 C-1.1875 2.1875 -1.1875 2.1875 0 0 Z " fill="#C77395" transform="translate(284,123)"/>
<path d="M0 0 C2.91517292 1.07401108 4.77810176 1.77810176 7 4 C6.625 6.125 6.625 6.125 6 8 C6 7.34 6 6.68 6 6 C4.68 6 3.36 6 2 6 C1.34 4.02 0.68 2.04 0 0 Z " fill="#C4628C" transform="translate(271,121)"/>
<path d="M0 0 C0.78375 0.04125 1.5675 0.0825 2.375 0.125 C2.045 1.115 1.715 2.105 1.375 3.125 C2.365 3.455 3.355 3.785 4.375 4.125 C1.5625 4.8125 1.5625 4.8125 -1.625 5.125 C-3.5 3.6875 -3.5 3.6875 -4.625 2.125 C-2.625 0.125 -2.625 0.125 0 0 Z " fill="#C05E87" transform="translate(241.625,353.875)"/>
<path d="M0 0 C0.66 0 1.32 0 2 0 C2 1.32 2 2.64 2 4 C1.34 4 0.68 4 0 4 C-0.33 5.65 -0.66 7.3 -1 9 C-1.99 9 -2.98 9 -4 9 C-2.68 6.03 -1.36 3.06 0 0 Z " fill="#BC6991" transform="translate(275,320)"/>
<path d="M0 0 C2.22333727 3.81143533 3.10108198 7.71285253 4 12 C3.67 12.66 3.34 13.32 3 14 C2.34 14 1.68 14 1 14 C0.77213542 12.01432292 0.54427083 10.02864583 0.31640625 8.04296875 C0.02829265 5.80603607 0.02829265 5.80603607 -1 3 C-0.67 2.01 -0.34 1.02 0 0 Z " fill="#C47399" transform="translate(220,305)"/>
<path d="M0 0 C2.0625 1.5 2.0625 1.5 4 4 C4.05928384 6.82406647 3.55954815 9.20225927 3 12 C2.67 12 2.34 12 2 12 C2 10.02 2 8.04 2 6 C1.01 6 0.02 6 -1 6 C-0.67 4.02 -0.34 2.04 0 0 Z " fill="#CB6B9A" transform="translate(285,257)"/>
<path d="M0 0 C0.99 0 1.98 0 3 0 C3 0.66 3 1.32 3 2 C3.99 2.33 4.98 2.66 6 3 C3.69 4.32 1.38 5.64 -1 7 C-1.33 6.34 -1.66 5.68 -2 5 C-1.34 4.34 -0.68 3.68 0 3 C0 2.01 0 1.02 0 0 Z " fill="#C66D95" transform="translate(227,187)"/>
<path d="M0 0 C0.33 0.66 0.66 1.32 1 2 C1.66 2.33 2.32 2.66 3 3 C2.34 6.96 1.68 10.92 1 15 C0.67 15 0.34 15 0 15 C0.01160156 14.39671875 0.02320313 13.7934375 0.03515625 13.171875 C0.04417969 12.37265625 0.05320312 11.5734375 0.0625 10.75 C0.07410156 9.96109375 0.08570313 9.1721875 0.09765625 8.359375 C0.0838463 6.00706224 0.0838463 6.00706224 -0.56640625 3.828125 C-1 2 -1 2 0 0 Z " fill="#B34A79" transform="translate(358,274)"/>
<path d="M0 0 C0.66 0 1.32 0 2 0 C3.125 5.75 3.125 5.75 2 8 C1.01 8 0.02 8 -1 8 C-1.33 6.02 -1.66 4.04 -2 2 C-1.34 2 -0.68 2 0 2 C0 1.34 0 0.68 0 0 Z " fill="#C85E8B" transform="translate(138,147)"/>
<path d="M0 0 C5.4185766 -0.22577402 9.77487721 0.53329887 15 2 C15 2.33 15 2.66 15 3 C9.5610835 3.21755666 5.12919186 3.10428384 0 1 C0 0.67 0 0.34 0 0 Z " fill="#C887A2" transform="translate(178,141)"/>
<path d="M0 0 C0.66 0.33 1.32 0.66 2 1 C1.42647107 4.87132028 -0.48704352 7.08172796 -3 10 C-3.36923077 4.58461538 -3.36923077 4.58461538 -1.5 1.625 C-1.005 1.08875 -0.51 0.5525 0 0 Z " fill="#C27192" transform="translate(236,106)"/>
<path d="M0 0 C0.99 0.33 1.98 0.66 3 1 C2.25 2.9375 2.25 2.9375 1 5 C-1.125 5.75 -1.125 5.75 -3 6 C-2.42655063 3.13275314 -2.1385485 2.1385485 0 0 Z " fill="#BD6B8E" transform="translate(233,97)"/>
<path d="M0 0 C2.31 0.33 4.62 0.66 7 1 C7 1.99 7 2.98 7 4 C6.34 4.66 5.68 5.32 5 6 C3.35 4.02 1.7 2.04 0 0 Z " fill="#BE608A" transform="translate(136,301)"/>
<path d="M0 0 C1.32 0.66 2.64 1.32 4 2 C3.34 3.98 2.68 5.96 2 8 C0.4375 6.25 0.4375 6.25 -1 4 C-0.6875 1.75 -0.6875 1.75 0 0 Z " fill="#BE5D87" transform="translate(134,293)"/>
<path d="M0 0 C0.66 0 1.32 0 2 0 C3.25664978 2.90600261 4 4.79604584 4 8 C3.01 8 2.02 8 1 8 C0.67 5.36 0.34 2.72 0 0 Z " fill="#C06D93" transform="translate(363,268)"/>
<path d="M0 0 C-1.97420135 2.52259061 -2.96745642 2.9929808 -6.1875 3.6875 C-7.5796875 3.8421875 -7.5796875 3.8421875 -9 4 C-9 3.01 -9 2.02 -9 1 C-6.04335481 -0.4783226 -3.25770263 -0.06032783 0 0 Z " fill="#BC5E88" transform="translate(247,203)"/>
<path d="M0 0 C2.97 0.495 2.97 0.495 6 1 C6 1.66 6 2.32 6 3 C6.66 3.33 7.32 3.66 8 4 C7.67 4.66 7.34 5.32 7 6 C3.31197956 4.77065985 2.27643027 3.06140622 0 0 Z " fill="#C4487C" transform="translate(276,186)"/>
<path d="M0 0 C0.33 0 0.66 0 1 0 C1.55723019 2.10009873 2.09531745 4.20528465 2.625 6.3125 C2.92664063 7.48425781 3.22828125 8.65601563 3.5390625 9.86328125 C4 13 4 13 2 16 C0.80911014 10.61972975 -0.2919519 5.54708616 0 0 Z " fill="#CB87A3" transform="translate(131,162)"/>
<path d="M0 0 C0.66 0.33 1.32 0.66 2 1 C1.40312566 4.34249629 0.26396123 6.46436342 -2 9 C-2.66 9 -3.32 9 -4 9 C-3.34 7.02 -2.68 5.04 -2 3 C-1.34 3 -0.68 3 0 3 C0 2.01 0 1.02 0 0 Z " fill="#C84780" transform="translate(237,97)"/>
<path d="M0 0 C0.99 0.33 1.98 0.66 3 1 C3 1.66 3 2.32 3 3 C1.02 3.99 -0.96 4.98 -3 6 C-3.33 4.68 -3.66 3.36 -4 2 C-3.34 1.67 -2.68 1.34 -2 1 C-2 1.66 -2 2.32 -2 3 C-1.34 3 -0.68 3 0 3 C0 2.01 0 1.02 0 0 Z " fill="#C05E8D" transform="translate(272,268)"/>
<path d="M0 0 C-0.165 0.598125 -0.33 1.19625 -0.5 1.8125 C-1.1114124 4.11344336 -1.1114124 4.11344336 -1 7 C-1.66 7 -2.32 7 -3 7 C-3 6.34 -3 5.68 -3 5 C-3.99 4.67 -4.98 4.34 -6 4 C-2.25 0 -2.25 0 0 0 Z " fill="#C96793" transform="translate(191,238)"/>
<path d="M0 0 C1.10844919 3.32534757 0.84454356 5.62182575 0 9 C-0.66 9 -1.32 9 -2 9 C-2.6875 6.1875 -2.6875 6.1875 -3 3 C-1.5625 1.125 -1.5625 1.125 0 0 Z " fill="#C76B94" transform="translate(329,212)"/>
<path d="M0 0 C0.99 0.66 1.98 1.32 3 2 C1.75023244 5.65316671 1.32901247 6.78065836 -2 9 C-2.33 8.01 -2.66 7.02 -3 6 C-2.01 6 -1.02 6 0 6 C0 4.02 0 2.04 0 0 Z " fill="#C27496" transform="translate(345,205)"/>
<path d="M0 0 C2.97 1.65 5.94 3.3 9 5 C8.67 5.66 8.34 6.32 8 7 C4.5625 5.75 4.5625 5.75 1 4 C0.67 2.68 0.34 1.36 0 0 Z " fill="#C98EA6" transform="translate(275,181)"/>
<path d="M0 0 C2.97 0.495 2.97 0.495 6 1 C4.68 2.32 3.36 3.64 2 5 C1.34 4.67 0.68 4.34 0 4 C0 2.68 0 1.36 0 0 Z " fill="#C66893" transform="translate(237,182)"/>
<path d="M0 0 C1.32 0 2.64 0 4 0 C3.690625 0.5775 3.38125 1.155 3.0625 1.75 C2.07416636 3.84294184 1.4831387 5.74535275 1 8 C-0.42944945 5.64561267 -1.08661261 4.51967567 -0.625 1.75 C-0.41875 1.1725 -0.2125 0.595 0 0 Z " fill="#B84C7C" transform="translate(274,155)"/>
<path d="M0 0 C0.66 0.33 1.32 0.66 2 1 C1.67 2.32 1.34 3.64 1 5 C-1.97 4.505 -1.97 4.505 -5 4 C-3.35 2.68 -1.7 1.36 0 0 Z " fill="#C46F93" transform="translate(261,265)"/>
<path d="M0 0 C4.875 1.75 4.875 1.75 6 4 C4.02 4.33 2.04 4.66 0 5 C0 3.35 0 1.7 0 0 Z " fill="#C36992" transform="translate(217,252)"/>
<path d="M0 0 C1 3 1 3 0 6 C-0.66 6 -1.32 6 -2 6 C-2 6.66 -2 7.32 -2 8 C-2.99 8 -3.98 8 -5 8 C-3.62845496 5.04590299 -2.01136276 2.55991624 0 0 Z " fill="#C47698" transform="translate(344,195)"/>
<path d="M0 0 C0.99 0 1.98 0 3 0 C2.67 1.98 2.34 3.96 2 6 C0.35 6 -1.3 6 -3 6 C-2.01 4.02 -1.02 2.04 0 0 Z " fill="#BE678C" transform="translate(348,189)"/>
<path d="M0 0 C0.99 0 1.98 0 3 0 C3 0.66 3 1.32 3 2 C3.66 2 4.32 2 5 2 C5 3.32 5 4.64 5 6 C4.01 6 3.02 6 2 6 C1.34 4.02 0.68 2.04 0 0 Z " fill="#C57095" transform="translate(214,323)"/>
<path d="M0 0 C2.00720923 0.28674418 4.0085944 0.61866701 6 1 C2.25 4 2.25 4 0 4 C-0.33 4.66 -0.66 5.32 -1 6 C-1.042721 4.33388095 -1.04063832 2.66617115 -1 1 C-0.67 0.67 -0.34 0.34 0 0 Z " fill="#C56F95" transform="translate(263,273)"/>
<path d="M0 0 C-0.99 0.33 -1.98 0.66 -3 1 C-3.33 1.99 -3.66 2.98 -4 4 C-6.0625 4.6875 -6.0625 4.6875 -8 5 C-7.625 3.0625 -7.625 3.0625 -7 1 C-4.53721199 -0.231394 -2.7204945 -0.07159196 0 0 Z " fill="#BA5D84" transform="translate(195,206)"/>
<path d="M0 0 C0.66 0.99 1.32 1.98 2 3 C1.01 4.98 0.02 6.96 -1 9 C-1.66 8.67 -2.32 8.34 -3 8 C-2.690625 7.236875 -2.38125 6.47375 -2.0625 5.6875 C-1.32106407 3.81210323 -0.63771783 1.91315348 0 0 Z " fill="#C17294" transform="translate(354,178)"/>
<path d="M0 0 C0.33 0 0.66 0 1 0 C1.125 6.625 1.125 6.625 0 10 C-0.66 10 -1.32 10 -2 10 C-1.54177532 6.53058454 -1.10868317 3.32604951 0 0 Z " fill="#C37196" transform="translate(134,272)"/>
<path d="M0 0 C1 3 1 3 1 5 C-0.98 5.66 -2.96 6.32 -5 7 C-5 6.34 -5 5.68 -5 5 C-4.34 5 -3.68 5 -3 5 C-2.5359375 4.0409375 -2.5359375 4.0409375 -2.0625 3.0625 C-1 1 -1 1 0 0 Z " fill="#C26F95" transform="translate(167,226)"/>
<path d="M0 0 C0.66 0.66 1.32 1.32 2 2 C0.625 4 0.625 4 -1 6 C-1.66 6 -2.32 6 -3 6 C-3.33 4.68 -3.66 3.36 -4 2 C-2.68 1.34 -1.36 0.68 0 0 Z " fill="#B54F7B" transform="translate(188,218)"/>
<path d="M0 0 C4 4.75 4 4.75 4 7 C3.01 7 2.02 7 1 7 C0.67 7.66 0.34 8.32 0 9 C-0.33 8.01 -0.66 7.02 -1 6 C-0.34 6 0.32 6 1 6 C0.67 4.02 0.34 2.04 0 0 Z " fill="#BC648A" transform="translate(276,108)"/>
<path d="M0 0 C0.99 0.66 1.98 1.32 3 2 C2.01 2.495 2.01 2.495 1 3 C0.34444881 5.52733235 0.34444881 5.52733235 0 8 C-2 7 -2 7 -2.8125 5.125 C-3 3 -3 3 -1.5625 1.25 C-1.046875 0.8375 -0.53125 0.425 0 0 Z " fill="#C76A93" transform="translate(270,111)"/>
<path d="M0 0 C0.66 0.33 1.32 0.66 2 1 C2 1.99 2 2.98 2 4 C3.32 3.67 4.64 3.34 6 3 C5.34 4.32 4.68 5.64 4 7 C4 6.34 4 5.68 4 5 C2.35 4.67 0.7 4.34 -1 4 C-0.67 2.68 -0.34 1.36 0 0 Z " fill="#C9628F" transform="translate(204,299)"/>
<path d="M0 0 C4.455 0.99 4.455 0.99 9 2 C8.01 2.66 7.02 3.32 6 4 C2.8125 3.125 2.8125 3.125 0 2 C0 1.34 0 0.68 0 0 Z " fill="#C67E9F" transform="translate(299,294)"/>
<path d="M0 0 C0.99 0.33 1.98 0.66 3 1 C3.6875 3.0625 3.6875 3.0625 4 5 C3.01 5.495 3.01 5.495 2 6 C2 5.34 2 4.68 2 4 C1.34 4 0.68 4 0 4 C0 3.34 0 2.68 0 2 C-0.66 1.67 -1.32 1.34 -2 1 C-1.34 0.67 -0.68 0.34 0 0 Z " fill="#C06F93" transform="translate(332,239)"/>
<path d="M0 0 C2 3 2 3 3 6 C1.35 5.67 -0.3 5.34 -2 5 C-1.125 1.125 -1.125 1.125 0 0 Z " fill="#C2477E" transform="translate(149,196)"/>
<path d="M0 0 C2.475 0.495 2.475 0.495 5 1 C5 2.65 5 4.3 5 6 C4.34 5.67 3.68 5.34 3 5 C3 4.34 3 3.68 3 3 C2.34 3 1.68 3 1 3 C0.67 2.01 0.34 1.02 0 0 Z " fill="#C47095" transform="translate(142,195)"/>
<path d="M0 0 C0.99 0 1.98 0 3 0 C3.33 2.64 3.66 5.28 4 8 C3.01 7.67 2.02 7.34 1 7 C0.67 4.69 0.34 2.38 0 0 Z " fill="#C96090" transform="translate(231,164)"/>
</svg>
